<svg width="31" height="31" viewBox="0 0 31 31" fill="none" xmlns="http://www.w3.org/2000/svg">
<g clip-path="url(#clip0_69_329)">
<path d="M11.0996 4.56738C9.35913 4.56738 7.68993 5.25879 6.45922 6.48949C5.22851 7.7202 4.53711 9.3894 4.53711 11.1299V20.5049C4.53711 22.2454 5.22851 23.9146 6.45922 25.1453C7.68993 26.376 9.35913 27.0674 11.0996 27.0674H20.4746C22.2151 27.0674 23.8843 26.376 25.115 25.1453C26.3457 23.9146 27.0371 22.2454 27.0371 20.5049V15.8174C27.0371 15.5687 27.1359 15.3303 27.3117 15.1545C27.4875 14.9787 27.726 14.8799 27.9746 14.8799C28.2232 14.8799 28.4617 14.9787 28.6375 15.1545C28.8133 15.3303 28.9121 15.5687 28.9121 15.8174V20.5049C28.9121 22.7426 28.0232 24.8888 26.4408 26.4711C24.8585 28.0534 22.7124 28.9424 20.4746 28.9424H11.0996C8.86185 28.9424 6.71573 28.0534 5.1334 26.4711C3.55106 24.8888 2.66211 22.7426 2.66211 20.5049V11.1299C2.66211 8.89212 3.55106 6.74601 5.1334 5.16367C6.71573 3.58133 8.86185 2.69238 11.0996 2.69238H15.7871C16.0357 2.69238 16.2742 2.79115 16.45 2.96697C16.6258 3.14279 16.7246 3.38124 16.7246 3.62988C16.7246 3.87852 16.6258 4.11698 16.45 4.2928C16.2742 4.46861 16.0357 4.56738 15.7871 4.56738H11.0996Z" fill="white"/>
<path d="M30.7871 6.44238C30.7871 7.93423 30.1945 9.36497 29.1396 10.4199C28.0847 11.4748 26.654 12.0674 25.1621 12.0674C23.6703 12.0674 22.2395 11.4748 21.1846 10.4199C20.1297 9.36497 19.5371 7.93423 19.5371 6.44238C19.5371 4.95054 20.1297 3.5198 21.1846 2.46491C22.2395 1.41001 23.6703 0.817383 25.1621 0.817383C26.654 0.817383 28.0847 1.41001 29.1396 2.46491C30.1945 3.5198 30.7871 4.95054 30.7871 6.44238Z" fill="white"/>
</g>
<defs>
<clipPath id="clip0_69_329">
<rect width="30" height="30" fill="white" transform="translate(0.787109 0.817383)"/>
</clipPath>
</defs>
</svg>
