<svg width="31" height="30" viewBox="0 0 31 30" fill="none" xmlns="http://www.w3.org/2000/svg">
<g clip-path="url(#clip0_73_161)">
<path d="M17.7086 1.96973C16.9342 -0.655273 13.2142 -0.655273 12.4398 1.96973L12.2523 2.60723C12.1366 3.00022 11.9344 3.36233 11.6606 3.667C11.3867 3.97167 11.0481 4.21119 10.6696 4.36797C10.2912 4.52476 9.88239 4.59484 9.4733 4.57308C9.06421 4.55132 8.66518 4.43827 8.30547 4.24223L7.72422 3.92348C5.31859 2.61473 2.68797 5.24535 3.99859 7.6491L4.31547 8.23223C5.15172 9.76973 4.35859 11.6841 2.68047 12.1791L2.04297 12.3666C-0.582031 13.141 -0.582031 16.861 2.04297 17.6354L2.68047 17.8229C3.07346 17.9386 3.43557 18.1408 3.74024 18.4146C4.04492 18.6885 4.28443 19.0271 4.44121 19.4055C4.598 19.784 4.66808 20.1928 4.64632 20.6019C4.62457 21.011 4.51152 21.41 4.31547 21.7697L3.99672 22.351C2.68797 24.7566 5.31859 27.3872 7.72234 26.0766L8.30547 25.7597C8.66518 25.5637 9.06421 25.4506 9.4733 25.4289C9.88239 25.4071 10.2912 25.4772 10.6696 25.634C11.0481 25.7908 11.3867 26.0303 11.6606 26.335C11.9344 26.6396 12.1366 27.0017 12.2523 27.3947L12.4398 28.0322C13.2142 30.6572 16.9342 30.6572 17.7086 28.0322L17.8961 27.3947C18.0118 27.0017 18.214 26.6396 18.4879 26.335C18.7617 26.0303 19.1003 25.7908 19.4788 25.634C19.8573 25.4772 20.266 25.4071 20.6751 25.4289C21.0842 25.4506 21.4833 25.5637 21.843 25.7597L22.4242 26.0785C24.8298 27.3872 27.4605 24.7566 26.1498 22.3528L25.833 21.7697C25.6369 21.41 25.5239 21.011 25.5021 20.6019C25.4804 20.1928 25.5504 19.784 25.7072 19.4055C25.864 19.0271 26.1035 18.6885 26.4082 18.4146C26.7129 18.1408 27.075 17.9386 27.468 17.8229L28.1055 17.6354C30.7305 16.861 30.7305 13.141 28.1055 12.3666L27.468 12.1791C27.075 12.0634 26.7129 11.8612 26.4082 11.5873C26.1035 11.3135 25.864 10.9749 25.7072 10.5964C25.5504 10.2179 25.4804 9.80915 25.5021 9.40006C25.5239 8.99097 25.6369 8.59194 25.833 8.23223L26.1517 7.65098C27.4605 5.24535 24.8298 2.61473 22.4261 3.92535L21.843 4.24223C21.4833 4.43827 21.0842 4.55132 20.6751 4.57308C20.266 4.59484 19.8573 4.52476 19.4788 4.36797C19.1003 4.21119 18.7617 3.97167 18.4879 3.667C18.214 3.36233 18.0118 3.00022 17.8961 2.60723L17.7086 1.96973ZM15.0742 20.4947C13.6172 20.4947 12.2198 19.9159 11.1896 18.8856C10.1593 17.8554 9.58047 16.458 9.58047 15.001C9.58047 13.5439 10.1593 12.1466 11.1896 11.1163C12.2198 10.086 13.6172 9.50723 15.0742 9.50723C16.5308 9.50723 17.9276 10.0858 18.9576 11.1158C19.9875 12.1457 20.5661 13.5426 20.5661 14.9991C20.5661 16.4556 19.9875 17.8525 18.9576 18.8824C17.9276 19.9124 16.5308 20.491 15.0742 20.491V20.4947Z" fill="white"/>
</g>
<defs>
<clipPath id="clip0_73_161">
<rect width="30" height="30" fill="white" transform="translate(0.0742188 0.000488281)"/>
</clipPath>
</defs>
</svg>
