<svg width="31" height="31" viewBox="0 0 31 31" fill="none" xmlns="http://www.w3.org/2000/svg">
<g clip-path="url(#clip0_56_179)">
<path d="M0.787109 3.91448C0.787109 3.062 1.12576 2.24443 1.72855 1.64164C2.33135 1.03884 3.14891 0.700195 4.00139 0.700195H10.43C11.2824 0.700195 12.1 1.03884 12.7028 1.64164C13.3056 2.24443 13.6443 3.062 13.6443 3.91448V10.3431C13.6443 11.1955 13.3056 12.0131 12.7028 12.6159C12.1 13.2187 11.2824 13.5573 10.43 13.5573H4.00139C3.14891 13.5573 2.33135 13.2187 1.72855 12.6159C1.12576 12.0131 0.787109 11.1955 0.787109 10.3431V3.91448ZM17.93 3.91448C17.93 3.062 18.2686 2.24443 18.8714 1.64164C19.4742 1.03884 20.2918 0.700195 21.1443 0.700195H27.5728C28.4253 0.700195 29.2429 1.03884 29.8457 1.64164C30.4485 2.24443 30.7871 3.062 30.7871 3.91448V10.3431C30.7871 11.1955 30.4485 12.0131 29.8457 12.6159C29.2429 13.2187 28.4253 13.5573 27.5728 13.5573H21.1443C20.2918 13.5573 19.4742 13.2187 18.8714 12.6159C18.2686 12.0131 17.93 11.1955 17.93 10.3431V3.91448ZM0.787109 21.0573C0.787109 20.2049 1.12576 19.3873 1.72855 18.7845C2.33135 18.1817 3.14891 17.8431 4.00139 17.8431H10.43C11.2824 17.8431 12.1 18.1817 12.7028 18.7845C13.3056 19.3873 13.6443 20.2049 13.6443 21.0573V27.4859C13.6443 28.3384 13.3056 29.156 12.7028 29.7588C12.1 30.3615 11.2824 30.7002 10.43 30.7002H4.00139C3.14891 30.7002 2.33135 30.3615 1.72855 29.7588C1.12576 29.156 0.787109 28.3384 0.787109 27.4859V21.0573ZM17.93 21.0573C17.93 20.2049 18.2686 19.3873 18.8714 18.7845C19.4742 18.1817 20.2918 17.8431 21.1443 17.8431H27.5728C28.4253 17.8431 29.2429 18.1817 29.8457 18.7845C30.4485 19.3873 30.7871 20.2049 30.7871 21.0573V27.4859C30.7871 28.3384 30.4485 29.156 29.8457 29.7588C29.2429 30.3615 28.4253 30.7002 27.5728 30.7002H21.1443C20.2918 30.7002 19.4742 30.3615 18.8714 29.7588C18.2686 29.156 17.93 28.3384 17.93 27.4859V21.0573Z" fill="white"/>
</g>
<defs>
<clipPath id="clip0_56_179">
<rect width="30" height="30" fill="white" transform="translate(0.787109 0.700195)"/>
</clipPath>
</defs>
</svg>
