<svg width="31" height="31" viewBox="0 0 31 31" fill="none" xmlns="http://www.w3.org/2000/svg">
<path d="M30.7852 14.6865C30.7852 22.4541 24.0689 28.7509 15.7852 28.7509C14.2994 28.7545 12.8198 28.5478 11.3845 28.1361C10.2895 28.7308 7.77516 29.8721 3.54516 30.6155C3.17016 30.6798 2.88516 30.2619 3.03328 29.8881C3.69703 28.2084 4.29703 25.9702 4.47703 23.9288C2.18016 21.4575 0.785156 18.2227 0.785156 14.6865C0.785156 6.91892 7.50141 0.62207 15.7852 0.62207C24.0689 0.62207 30.7852 6.91892 30.7852 14.6865ZM10.1602 14.6865C10.1602 14.1536 9.96261 13.6426 9.61098 13.2658C9.25935 12.889 8.78244 12.6773 8.28516 12.6773C7.78788 12.6773 7.31096 12.889 6.95933 13.2658C6.6077 13.6426 6.41016 14.1536 6.41016 14.6865C6.41016 15.2194 6.6077 15.7304 6.95933 16.1072C7.31096 16.484 7.78788 16.6957 8.28516 16.6957C8.78244 16.6957 9.25935 16.484 9.61098 16.1072C9.96261 15.7304 10.1602 15.2194 10.1602 14.6865ZM17.6602 14.6865C17.6602 14.1536 17.4626 13.6426 17.111 13.2658C16.7594 12.889 16.2824 12.6773 15.7852 12.6773C15.2879 12.6773 14.811 12.889 14.4593 13.2658C14.1077 13.6426 13.9102 14.1536 13.9102 14.6865C13.9102 15.2194 14.1077 15.7304 14.4593 16.1072C14.811 16.484 15.2879 16.6957 15.7852 16.6957C16.2824 16.6957 16.7594 16.484 17.111 16.1072C17.4626 15.7304 17.6602 15.2194 17.6602 14.6865ZM23.2852 16.6957C23.7824 16.6957 24.2594 16.484 24.611 16.1072C24.9626 15.7304 25.1602 15.2194 25.1602 14.6865C25.1602 14.1536 24.9626 13.6426 24.611 13.2658C24.2594 12.889 23.7824 12.6773 23.2852 12.6773C22.7879 12.6773 22.311 12.889 21.9593 13.2658C21.6077 13.6426 21.4102 14.1536 21.4102 14.6865C21.4102 15.2194 21.6077 15.7304 21.9593 16.1072C22.311 16.484 22.7879 16.6957 23.2852 16.6957Z" fill="white"/>
</svg>
