<?xml version="1.0" standalone="no"?>
<!DOCTYPE svg PUBLIC "-//W3C//DTD SVG 20010904//EN"
 "http://www.w3.org/TR/2001/REC-SVG-20010904/DTD/svg10.dtd">
<svg version="1.0" xmlns="http://www.w3.org/2000/svg"
 width="1380.000000pt" height="2160.000000pt" viewBox="0 0 1380.000000 2160.000000"
 preserveAspectRatio="xMidYMid meet">

<g transform="translate(0.000000,2160.000000) scale(0.100000,-0.100000)"
fill="#000000" stroke="none">
<path d="M1 20488 c0 -916 2 -1117 14 -1138 11 -21 11 -29 -1 -52 -12 -23 -14
-507 -11 -3380 2 -1844 7 -3372 11 -3394 5 -27 4 -44 -3 -48 -17 -11 -15
-3157 2 -3155 61 8 84 -26 46 -67 -12 -13 -31 -24 -41 -24 -17 0 -18 -12 -18
-165 0 -91 3 -165 8 -165 4 0 17 16 29 35 24 37 87 74 115 68 23 -6 30 11 16
42 -10 21 -9 29 5 42 13 14 21 15 42 5 14 -7 37 -12 50 -12 14 0 25 -4 25 -9
0 -5 3 -16 6 -24 3 -8 -2 -22 -11 -31 -16 -15 -15 -18 13 -44 37 -35 54 -90
41 -135 -14 -49 -12 -52 42 -69 62 -20 164 -8 191 23 9 10 22 17 30 14 21 -8
14 -147 -11 -199 -21 -43 -64 -76 -98 -76 -11 0 -28 -9 -37 -19 -15 -17 -16
-24 -5 -60 8 -26 17 -40 25 -37 7 2 20 -2 31 -9 12 -10 14 -14 4 -15 -10 0
-12 -10 -7 -45 7 -40 5 -45 -12 -45 -24 0 -39 17 -44 50 -4 32 -69 48 -104 25
-34 -22 -105 -45 -141 -45 -39 0 -40 -3 -13 -37 13 -17 20 -41 20 -69 0 -39
-4 -46 -54 -89 -58 -49 -82 -53 -132 -20 l-24 15 0 -343 c0 -327 1 -345 19
-361 23 -21 41 -14 41 16 0 11 9 33 21 49 16 23 28 29 57 29 40 0 82 -23 82
-44 0 -29 28 -40 70 -27 22 6 40 15 40 19 0 10 -40 113 -56 144 -8 14 -14 34
-14 45 0 27 50 69 92 77 31 6 39 3 52 -16 9 -12 16 -43 16 -68 0 -25 4 -59 8
-75 10 -36 -3 -95 -22 -95 -7 0 -20 -8 -29 -18 -14 -16 -14 -20 0 -50 19 -39
32 -40 71 -4 17 16 49 34 71 41 46 13 47 17 54 124 5 78 24 107 69 107 28 0
93 -31 152 -73 37 -26 52 -17 89 54 16 30 35 61 43 70 13 15 12 20 -11 47 -32
38 -33 81 -1 111 23 22 24 22 62 4 38 -18 39 -20 38 -71 -1 -42 1 -52 15 -52
33 0 136 79 171 131 33 49 35 55 33 128 -3 88 1 107 25 115 9 3 32 17 51 31
41 30 81 32 136 5 23 -11 50 -18 59 -14 18 7 22 24 5 24 -5 0 -7 5 -4 10 3 6
1 10 -4 10 -6 0 -11 7 -11 15 0 18 -5 18 -31 4 -11 -5 -17 -14 -14 -19 11 -18
-80 29 -97 51 -40 48 -11 136 56 169 23 11 51 20 62 20 11 0 27 6 36 13 26 21
59 76 60 99 1 13 10 32 19 43 14 15 18 34 15 70 l-2 49 -50 15 c-48 16 -49 17
-52 58 -3 40 -1 43 35 59 40 17 89 32 135 41 15 3 48 -2 73 -10 36 -13 51 -14
71 -5 14 6 23 17 21 23 -3 6 1 24 7 40 11 26 18 30 51 30 23 0 41 6 46 15 39
71 58 169 37 192 -7 7 -25 30 -41 50 -27 36 -27 39 -21 140 l6 103 -26 -44
c-14 -23 -26 -49 -26 -56 0 -8 -5 -17 -12 -21 -6 -4 -8 -3 -4 4 3 6 2 13 -4
17 -5 3 -10 -1 -10 -9 0 -22 -11 -20 -51 7 -19 12 -38 36 -42 52 -5 17 -13 44
-18 61 -16 53 -11 82 16 100 33 21 75 13 120 -23 30 -23 34 -33 29 -56 -3 -15
-2 -27 3 -27 15 1 40 25 47 45 3 11 19 35 34 52 27 33 27 33 71 19 25 -7 47
-18 49 -24 2 -7 10 -12 18 -12 8 0 40 -27 71 -59 30 -33 67 -62 81 -66 29 -7
82 12 82 30 0 7 8 23 19 36 14 18 27 23 55 21 24 -2 36 2 36 10 0 20 38 49 69
52 32 4 72 -8 164 -48 49 -21 136 -102 153 -143 24 -56 17 -89 -39 -191 -86
-155 -94 -176 -102 -265 l-6 -58 33 23 c18 13 37 30 42 38 5 8 29 35 54 60 25
25 55 62 69 83 13 20 50 65 83 98 53 54 63 60 89 54 16 -3 35 -12 41 -20 6 -7
25 -67 41 -132 39 -157 41 -302 7 -546 -8 -60 -8 -84 2 -101 10 -19 9 -30 -8
-62 -30 -59 -49 -122 -98 -319 -77 -307 -98 -413 -153 -785 -29 -191 -39 -275
-51 -435 -6 -77 -18 -201 -26 -275 -15 -141 -28 -274 -43 -450 -8 -92 -29
-294 -97 -915 -9 -82 -22 -178 -30 -213 -8 -35 -14 -81 -14 -103 0 -22 -12
-86 -26 -142 -24 -91 -27 -124 -29 -304 -3 -197 -4 -203 -28 -235 -50 -67 -79
-145 -79 -211 1 -34 -5 -82 -13 -107 -7 -25 -19 -84 -26 -132 -11 -78 -10 -90
4 -105 17 -19 59 -42 122 -67 l40 -15 -35 0 c-44 -1 -270 -59 -368 -96 -41
-14 -80 -24 -87 -21 -7 2 -20 29 -29 59 -44 152 -202 288 -357 308 -36 4 -95
19 -130 33 -144 55 -271 58 -485 12 -184 -40 -275 -74 -365 -138 -35 -25 -84
-55 -109 -66 -104 -47 -153 -63 -161 -55 -5 5 -12 33 -16 62 -5 41 -11 56 -30
68 -21 14 -26 14 -34 2 -9 -14 -28 -75 -30 -94 0 -5 -15 -30 -33 -55 -26 -36
-38 -44 -58 -42 -19 2 -35 -7 -63 -35 -36 -38 -36 -38 -29 -98 5 -33 9 -96 9
-140 1 -77 2 -81 28 -93 42 -20 50 -45 26 -76 -11 -14 -26 -26 -33 -26 -31 0
-66 -26 -67 -50 -2 -44 3 -65 17 -73 20 -12 17 -34 -7 -51 -12 -8 -19 -21 -17
-28 8 -19 -9 -58 -25 -58 -15 0 -50 -65 -66 -125 -6 -22 -18 -49 -26 -59 -13
-17 -15 -186 -15 -1323 l0 -1303 6223 0 6223 0 21 28 c14 19 21 44 21 81 2 45
-1 54 -18 58 -11 3 -17 9 -14 14 3 5 16 6 30 3 14 -4 24 -2 24 5 0 6 -9 11
-19 11 -11 0 -23 5 -27 12 -5 7 -3 8 6 3 10 -6 12 -3 8 13 -4 12 -2 25 3 28 5
3 9 10 9 16 0 6 -9 3 -20 -7 -14 -12 -20 -14 -20 -5 0 7 8 19 18 26 16 13 16
15 0 28 -26 19 -22 29 9 21 22 -5 25 -4 14 8 -9 12 -9 16 1 20 10 4 10 8 -2
16 -13 9 -13 11 3 11 9 0 17 5 17 12 0 6 -3 9 -6 5 -3 -3 -15 3 -27 13 -11 11
-18 23 -14 26 4 4 2 13 -4 21 -11 13 -2 17 37 16 13 0 10 43 -5 61 -7 9 -6 19
5 34 14 20 14 22 0 22 -9 0 -16 4 -16 10 0 5 7 7 15 4 15 -6 21 11 7 20 -4 2
-9 22 -10 43 -2 21 -7 42 -12 47 -6 6 -10 15 -10 21 0 5 5 3 10 -5 8 -13 10
-13 10 2 0 9 3 24 7 34 4 12 3 15 -5 10 -16 -9 -15 7 0 22 9 9 6 12 -15 12
-16 0 -27 5 -27 14 0 8 8 13 18 12 21 -1 24 30 5 61 -24 40 -13 69 15 41 9 -9
12 -9 12 0 0 7 -5 12 -11 12 -12 0 -1 42 13 51 6 4 5 8 -2 11 -14 4 -22 196
-8 204 4 3 8 20 8 38 0 17 5 37 12 44 9 9 9 12 -3 12 -8 0 -19 -4 -25 -10 -6
-6 -9 0 -8 18 1 15 3 27 4 27 1 0 3 12 4 27 1 14 -1 26 -4 26 -18 -1 -21 4
-10 17 7 8 10 15 7 15 -4 0 1 19 9 42 13 39 13 43 -6 63 -25 26 -26 55 -2 55
10 0 13 3 7 8 -6 4 -11 32 -12 63 -2 31 -9 69 -17 84 -8 16 -13 33 -10 39 3 6
-4 0 -15 -13 -23 -25 -43 -22 -21 4 7 8 8 15 2 15 -5 0 -12 11 -14 25 -4 21
-3 23 9 14 7 -7 16 -9 20 -5 3 3 1 6 -5 6 -7 0 -12 5 -12 11 0 6 8 8 19 4 11
-3 22 -1 26 5 3 6 10 8 15 5 4 -3 10 8 12 23 3 24 1 28 -16 27 -12 -1 -24 0
-28 2 -9 5 12 53 24 53 14 0 -1 54 -19 68 -15 10 -15 16 -5 32 6 11 12 29 12
40 0 27 16 25 24 -3 6 -22 7 -22 21 -3 19 25 19 46 0 46 -12 0 -15 9 -12 43 2
23 0 50 -5 59 -6 13 -5 16 7 12 8 -4 15 -1 15 5 0 6 7 11 15 11 13 0 14 4 3
23 -7 12 -11 30 -9 40 1 9 -4 17 -12 17 -18 0 -30 27 -17 35 16 10 12 34 -11
65 -15 20 -20 36 -15 54 3 14 10 25 14 25 19 -3 30 2 36 17 3 8 2 12 -3 9 -5
-3 -12 4 -16 15 -4 11 -16 20 -28 21 -20 1 -20 2 3 8 20 5 26 14 28 44 2 23
-1 37 -9 37 -7 0 -9 9 -5 27 16 68 18 126 4 135 -10 8 -11 11 0 15 10 4 10 7
-1 17 -23 18 -32 56 -13 56 21 0 21 43 1 60 -19 15 -20 44 -2 37 9 -3 14 5 14
27 1 46 10 113 17 125 4 5 2 12 -4 16 -14 9 -12 38 5 71 9 17 13 40 9 56 -5
26 11 92 28 113 4 5 8 21 8 36 0 15 5 29 12 31 6 2 13 24 14 49 2 24 3 47 3
52 1 4 9 7 19 7 12 0 27 16 41 45 15 30 29 45 42 45 25 0 36 27 20 51 -9 15
-8 19 4 19 8 0 15 -4 15 -10 0 -5 7 -10 16 -10 8 0 12 5 9 10 -3 6 3 10 14 10
26 0 28 17 4 23 -15 4 -14 6 5 12 13 4 21 13 18 20 -2 7 5 15 16 18 15 4 19
11 15 26 -3 11 1 26 10 32 9 8 10 14 3 19 -7 4 -5 21 7 51 14 36 17 80 17 252
l1 207 95 34 c95 33 390 156 485 202 146 71 218 133 250 217 16 43 17 54 5
100 -7 29 -21 68 -30 87 -27 54 -62 188 -55 210 8 24 -10 119 -33 175 -9 22
-36 67 -60 99 -44 59 -75 119 -66 128 2 3 -2 20 -10 39 -7 19 -16 72 -20 119
-9 114 -10 118 -28 170 -9 25 -21 65 -28 90 -6 25 -21 68 -32 95 -19 49 -33
92 -104 325 -60 195 -102 316 -127 367 -13 26 -28 59 -32 73 -13 46 -166 430
-267 675 -16 39 -42 108 -58 155 -16 47 -44 121 -64 165 -20 44 -36 87 -36 96
0 17 51 27 210 44 25 2 70 7 100 10 185 20 260 42 279 83 6 12 15 22 21 22 5
0 10 7 10 15 0 8 4 15 8 15 9 0 10 -7 13 -55 2 -35 46 -35 59 0 9 24 10 24 45
9 47 -19 71 -6 80 44 6 39 10 41 58 33 4 0 7 -10 7 -22 0 -14 5 -19 18 -17 9
2 22 -3 29 -12 15 -20 131 -17 175 4 17 9 37 16 45 16 9 0 13 17 13 63 -1 56
-2 60 -15 43 -15 -19 -15 -19 -38 2 -13 12 -33 22 -45 22 -11 0 -24 5 -27 10
-4 6 -18 0 -37 -15 -16 -14 -38 -25 -49 -25 -12 0 -21 -9 -25 -27 -10 -48 -11
-49 -23 -20 -10 26 -12 27 -27 13 -16 -17 -64 -22 -64 -7 0 5 -13 14 -29 21
-24 9 -34 9 -58 -3 -19 -10 -34 -12 -44 -6 -8 5 -25 9 -39 9 -15 0 -41 16 -67
40 l-41 40 -13 -37 c-6 -21 -16 -44 -22 -51 -14 -17 -57 -15 -58 3 -1 8 -2 19
-3 24 0 5 -14 19 -29 31 -26 20 -33 21 -66 11 -21 -6 -47 -11 -58 -11 -19 0
-73 -66 -73 -89 0 -12 -14 -21 -40 -26 -13 -2 -18 0 -14 7 4 6 1 9 -7 6 -8 -3
-31 4 -51 15 l-38 21 -27 -30 c-16 -17 -36 -34 -45 -37 -10 -4 -18 -13 -18
-21 0 -9 -7 -12 -19 -9 -11 3 -19 12 -19 21 1 10 -15 41 -35 69 -36 54 -67
140 -67 188 0 14 -5 36 -11 47 -8 14 -8 23 0 31 7 7 7 16 0 30 -8 14 -8 26 1
42 9 17 9 28 1 43 -13 25 -14 52 -2 52 4 0 8 -10 7 -22 -1 -14 6 -24 17 -26
19 -4 25 32 6 44 -6 3 -8 16 -5 29 4 17 2 22 -12 21 -9 0 -20 -5 -24 -11 -4
-6 -8 -2 -8 8 0 10 8 17 20 17 22 0 26 20 8 38 -10 10 -10 15 1 21 10 7 11 16
3 42 -5 19 -10 48 -10 64 -1 36 -9 132 -21 240 -9 78 -30 148 -64 212 -17 31
-75 83 -93 83 -30 0 -144 162 -144 203 0 29 -46 50 -95 44 l-44 -6 -37 60
c-20 33 -35 62 -33 64 2 1 21 8 42 13 40 11 82 4 117 -21 12 -8 29 -13 39 -10
10 3 35 -10 60 -31 24 -20 47 -36 51 -36 4 0 19 -18 31 -39 46 -77 181 -231
203 -232 63 -2 96 -20 117 -62 14 -28 21 -32 60 -35 46 -3 50 -6 147 -101 30
-29 56 -51 58 -48 14 13 -7 165 -36 262 -37 127 -37 125 -2 125 17 0 44 -8 60
-17 28 -16 30 -16 60 6 30 21 33 21 64 5 18 -9 47 -29 64 -45 27 -26 34 -28
57 -20 22 8 34 7 62 -9 19 -11 35 -17 35 -13 0 3 8 -4 19 -15 23 -27 57 -31
42 -4 -11 19 -49 57 -102 102 l-37 30 -7 107 c-5 73 -13 120 -26 144 -10 21
-27 68 -38 106 -10 38 -33 101 -50 140 -35 81 -38 113 -16 198 28 104 73 124
136 59 41 -44 101 -73 151 -74 24 0 46 -8 66 -25 17 -14 35 -25 41 -25 6 0 28
-26 49 -58 45 -71 168 -184 237 -217 27 -13 65 -34 83 -46 l32 -21 0 151 c0
169 9 145 -92 252 -29 30 -65 63 -80 72 -15 9 -50 37 -78 62 -28 25 -55 45
-59 45 -10 0 -123 67 -189 112 -23 16 -51 46 -61 66 -11 20 -35 54 -55 74 -45
48 -64 106 -46 147 7 17 20 32 29 35 55 15 96 15 144 2 28 -8 71 -20 94 -26
29 -7 51 -22 68 -44 19 -26 36 -35 68 -40 23 -4 57 -15 74 -24 28 -15 44 -16
108 -8 l75 10 0 132 0 133 -27 -2 c-25 -2 -28 2 -31 33 -2 27 5 46 28 78 16
23 30 46 30 52 0 5 -21 10 -47 10 -53 0 -65 5 -81 36 -19 36 3 84 68 149 l60
59 0 89 c0 79 -2 88 -17 83 -10 -2 -34 -8 -53 -11 -60 -12 -80 -30 -80 -75 0
-103 -43 -129 -240 -144 -28 -2 -49 -16 -108 -72 -39 -38 -72 -76 -72 -84 0
-8 11 -48 24 -89 28 -89 24 -111 -34 -181 -43 -51 -76 -64 -99 -36 -11 12 -46
137 -57 201 -3 17 -10 48 -15 70 -6 22 -11 55 -11 74 0 20 -10 56 -23 81 -17
32 -25 71 -30 137 l-6 93 86 82 c95 91 104 96 154 97 57 1 95 -37 120 -118 12
-38 21 -80 21 -93 0 -13 6 -33 14 -44 21 -28 38 -7 41 53 2 26 5 68 7 93 2 25
0 82 -4 127 -8 76 -7 85 16 131 l25 49 -25 22 c-22 19 -24 27 -24 118 0 54 5
131 10 172 11 85 6 118 -21 126 -40 13 -34 83 15 180 17 34 21 61 22 180 1 77
3 143 3 148 1 4 24 7 52 7 43 0 54 -4 72 -27 40 -48 102 -103 117 -103 22 0
56 56 75 123 10 35 22 57 31 57 18 0 20 170 2 188 -9 9 -9 15 0 24 9 9 12 534
12 2302 l0 2291 -23 -29 c-17 -21 -29 -27 -42 -23 -15 6 -17 17 -13 77 5 86
25 115 58 85 l20 -18 0 1831 0 1832 -4385 0 c-4169 0 -4385 -1 -4385 -17 0
-10 -9 -31 -20 -48 -11 -16 -20 -38 -20 -47 0 -25 46 -75 77 -83 29 -7 53 -23
53 -34 0 -15 -61 -41 -95 -41 l-38 0 7 -37 c3 -21 6 -48 6 -60 0 -19 5 -23 34
-23 28 0 38 6 55 35 47 80 151 62 151 -27 0 -37 -26 -78 -50 -78 -5 0 -10 -12
-10 -26 0 -14 -4 -34 -10 -44 -5 -10 -14 -48 -19 -85 -13 -89 -29 -112 -85
-120 -52 -8 -80 -1 -106 27 -17 18 -19 31 -13 93 l6 73 -86 40 c-47 22 -90 48
-95 59 -6 10 -46 52 -89 93 -43 41 -116 112 -161 157 -48 48 -92 83 -104 83
-36 0 -58 19 -58 51 0 38 -17 44 -145 54 -94 7 -98 6 -85 -10 8 -10 33 -26 55
-35 22 -10 88 -57 147 -104 142 -113 163 -154 111 -217 -37 -44 -101 -70 -188
-76 -71 -6 -74 -5 -132 31 -33 21 -65 47 -71 59 -35 73 -41 150 -16 199 15 30
15 31 -17 57 -29 24 -32 31 -26 64 l6 37 -409 0 -409 0 -57 -26 c-56 -26 -83
-27 -156 -9 -20 5 -34 2 -53 -13 -36 -28 -68 -19 -63 19 4 28 4 29 -42 29 -41
0 -48 -3 -60 -27 -8 -16 -15 -48 -16 -73 -1 -25 -4 -56 -5 -70 -4 -23 0 -25
34 -28 35 -3 38 -6 33 -25 -3 -12 -6 -45 -6 -74 0 -69 -26 -98 -140 -157 -98
-49 -101 -50 -159 -5 -13 11 -39 19 -57 19 -35 0 -64 28 -64 61 0 25 48 59 81
59 26 0 29 3 29 33 0 27 11 44 59 93 32 32 61 72 65 87 4 17 20 36 41 49 19
11 35 23 35 27 0 26 -32 31 -212 31 -184 0 -188 0 -188 -21 0 -39 -32 -90 -76
-120 -24 -16 -44 -36 -44 -43 0 -25 -55 -85 -77 -86 -13 0 -32 -13 -45 -30
-22 -31 -62 -41 -71 -17 -11 31 46 120 104 163 16 11 49 51 74 87 l46 67 -71
0 c-65 0 -73 -2 -95 -27 -13 -16 -27 -42 -31 -60 -6 -31 -27 -49 -45 -37 -5 3
-9 22 -9 42 0 20 -3 47 -6 60 l-6 22 -964 0 -964 0 1 -1112z m1734 1070 c20
-9 25 -19 26 -47 2 -52 -1 -62 -21 -89 -10 -12 -22 -37 -25 -53 -9 -38 -40
-53 -86 -42 -69 18 -100 137 -52 201 15 21 32 28 69 33 27 3 52 7 56 7 4 1 19
-3 33 -10z m-852 -116 c17 -39 22 -106 11 -136 -8 -20 -38 -20 -68 -1 -21 14
-23 20 -14 53 5 20 12 51 15 67 11 69 30 75 56 17z m2753 -23 c23 -50 24 -86
3 -113 -28 -35 -77 -35 -118 0 -54 45 -37 135 29 156 24 8 74 -16 86 -43z
m-1786 11 c0 -11 -6 -20 -14 -20 -7 0 -16 9 -19 20 -4 15 0 20 14 20 12 0 19
-7 19 -20z m1394 -81 c22 -17 26 -27 21 -48 -14 -58 -84 -71 -110 -21 -20 38
-19 46 5 70 26 26 51 25 84 -1z m3644 5 c31 -22 55 -71 47 -101 -3 -15 -18
-30 -40 -39 -19 -8 -35 -18 -35 -23 0 -15 -84 -51 -120 -51 -48 0 -70 24 -70
76 0 24 5 55 12 69 12 28 54 55 85 55 10 1 29 7 43 15 33 19 51 18 78 -1z
m2491 -106 c7 -123 7 -132 -11 -136 -14 -3 -16 7 -16 74 1 79 6 114 17 114 3
0 8 -24 10 -52z m-6361 -24 c29 -19 57 -46 62 -60 13 -33 -6 -71 -41 -83 -16
-5 -29 -14 -30 -18 0 -4 -2 -19 -4 -33 -3 -31 30 -100 49 -100 15 0 34 41 38
84 4 36 34 58 48 36 6 -8 9 -26 8 -40 -1 -14 1 -30 5 -36 4 -7 0 -17 -8 -24
-18 -15 -19 -45 -3 -120 13 -66 6 -105 -23 -120 -16 -9 -28 -6 -65 18 -27 18
-69 34 -107 41 -107 19 -142 65 -124 164 11 63 11 113 2 189 -9 68 7 101 58
123 50 22 78 18 135 -21z m4421 5 c11 -18 22 -26 25 -20 25 39 146 -23 146
-75 0 -12 -12 -36 -26 -53 -34 -41 -74 -42 -106 -1 -13 16 -33 31 -45 33 -30
4 -93 79 -93 109 0 32 7 38 47 38 26 0 37 -6 52 -31z m-1039 -100 c-13 -23
-23 -24 -40 -4 -10 13 -10 21 -1 43 l13 27 19 -23 c14 -18 16 -28 9 -43z
m-4761 27 c9 -10 11 -25 7 -50 -7 -37 -20 -43 -80 -37 -54 5 -72 74 -26 99 28
14 78 8 99 -12z m5107 -61 c9 -38 1 -59 -30 -70 -23 -8 -30 -6 -42 10 -20 27
-18 42 10 70 29 28 53 24 62 -10z m-975 -17 c4 -33 -2 -131 -7 -140 -9 -14
-41 40 -49 83 -5 27 -2 40 10 52 19 20 44 22 46 5z m1376 -25 c23 -29 28 -47
28 -91 0 -47 -4 -57 -29 -78 -15 -14 -36 -24 -45 -22 -48 9 -78 183 -37 214
31 22 53 17 83 -23z m319 15 c4 -5 -4 -8 -17 -6 -12 1 -24 8 -26 15 -5 14 34
6 43 -9z m-1896 -67 c7 -15 6 -24 -6 -36 -31 -30 -66 -1 -50 41 8 20 44 17 56
-5z m379 -27 c12 -15 21 -33 21 -40 0 -13 79 -94 93 -94 4 0 7 13 7 29 0 16 7
37 16 45 23 23 70 20 88 -5 13 -19 13 -25 0 -50 -15 -29 -67 -48 -100 -35 -11
4 -14 1 -13 -12 7 -44 -10 -71 -54 -82 -23 -7 -59 -16 -79 -22 -74 -22 -148
17 -148 77 0 39 21 69 59 85 26 10 29 15 20 37 -13 36 -11 51 11 73 27 27 55
25 79 -6z m-2009 -14 c23 -6 48 -9 56 -6 18 7 -29 -69 -69 -111 -17 -18 -38
-33 -46 -33 -14 0 -14 -1 -1 -10 11 -7 8 -10 -15 -10 -17 0 -36 5 -43 12 -18
18 -14 67 8 95 11 14 20 33 20 42 0 22 21 43 37 37 6 -3 31 -10 53 -16z m1580
-69 c19 -16 41 -39 47 -52 11 -22 10 -25 -15 -37 -25 -12 -37 -11 -99 7 -78
23 -92 40 -68 78 32 49 76 50 135 4z m-3282 2 c-4 -22 -22 -20 -26 1 -2 10 3
16 13 16 10 0 15 -7 13 -17z m6827 -17 c33 -8 81 -18 108 -21 29 -4 58 -16 75
-30 26 -23 26 -24 9 -43 -28 -31 -18 -53 32 -68 24 -7 49 -10 55 -8 21 8 37
-21 34 -62 -3 -35 -7 -39 -32 -42 -18 -2 -40 4 -58 18 -26 19 -30 19 -44 5
-47 -47 -109 16 -69 69 24 31 18 38 -27 32 -68 -9 -141 13 -188 58 -31 29 -40
45 -38 65 3 27 42 54 68 47 8 -2 42 -11 75 -20z m3960 -16 c10 -30 -3 -60 -25
-57 -23 4 -50 26 -50 41 0 36 64 50 75 16z m-9661 -62 c30 -42 9 -112 -40
-138 -26 -15 -39 -8 -64 33 -18 30 -18 31 1 68 30 61 76 77 103 37z m10316
-200 c19 -7 41 -17 48 -21 14 -10 16 -71 2 -97 -8 -15 -72 -60 -85 -60 -16 0
-65 145 -65 192 0 12 51 6 100 -14z m-10450 -35 c0 -28 -11 -29 -33 -5 -19 21
-14 31 14 29 13 -1 19 -9 19 -24z m8144 1 c9 -8 16 -25 16 -37 0 -12 3 -31 6
-42 7 -27 -39 -76 -87 -92 -56 -20 -60 -17 -34 33 14 26 25 58 25 71 0 23 37
83 51 83 4 0 15 -7 23 -16z m-7939 -39 c21 -21 25 -33 25 -89 0 -59 -2 -66
-31 -90 -37 -31 -45 -32 -86 -7 -48 30 -52 68 -12 138 47 83 63 90 104 48z
m8907 -35 c12 -23 14 -38 8 -44 -19 -19 -45 8 -48 49 -4 46 15 44 40 -5z
m-9897 -55 c17 -13 39 -26 50 -29 36 -12 57 -34 65 -71 11 -47 4 -65 -24 -65
-28 0 -86 36 -86 54 0 7 -9 24 -19 38 -16 19 -26 23 -55 20 -33 -4 -36 -7 -36
-36 0 -18 -5 -37 -12 -44 -14 -14 -68 -16 -68 -4 0 5 -11 14 -24 21 -23 13
-23 14 -8 64 17 60 29 70 97 78 61 7 82 2 120 -26z m6390 24 c10 -15 -1 -23
-20 -15 -9 3 -13 10 -10 16 8 13 22 13 30 -1z m2333 -37 c2 -12 1 -22 -3 -22
-14 0 -36 30 -30 40 10 17 30 6 33 -18z m-3346 -23 c29 -16 60 -89 62 -143 l1
-51 -40 -6 c-22 -3 -71 -23 -110 -44 -62 -33 -73 -36 -101 -26 -17 6 -37 11
-46 11 -19 0 -48 42 -48 69 0 11 -4 23 -10 26 -24 15 -8 56 40 105 67 68 99
82 175 74 33 -4 68 -10 77 -15z m1083 -64 c17 -16 25 -35 25 -58 0 -28 -7 -39
-46 -66 -25 -18 -56 -44 -69 -57 -19 -19 -30 -22 -66 -18 -53 6 -96 28 -104
53 -7 24 15 80 40 101 85 71 176 89 220 45z m3429 -98 c37 -37 67 -141 60
-207 -7 -61 -18 -80 -45 -80 -25 0 -89 86 -89 120 0 15 -7 34 -17 41 -9 8 -22
29 -30 47 -13 33 -9 53 20 90 16 21 75 14 101 -11z m-9710 -52 c16 -19 33 -35
37 -35 5 0 22 -13 39 -30 17 -16 34 -30 39 -30 11 0 31 -47 31 -74 0 -29 -35
-66 -64 -66 -36 0 -75 49 -82 105 -5 36 -17 61 -41 89 -39 47 -43 76 -10 76
13 0 34 -14 51 -35z m2029 -12 c16 -8 52 -22 80 -30 72 -21 97 -41 124 -98 13
-27 30 -61 38 -75 15 -26 11 -128 -7 -163 -22 -42 -102 -44 -112 -3 -5 19 -16
24 -62 32 -58 9 -61 11 -89 75 -9 20 -29 46 -45 58 -29 21 -30 21 -49 2 -38
-38 -81 -54 -129 -47 -73 10 -123 52 -95 79 4 4 6 31 4 60 -4 91 52 132 128
93 25 -13 28 -13 39 4 24 40 112 46 175 13z m3371 -4 c27 -31 35 -79 14 -79
-6 0 -27 19 -47 42 -55 63 -57 68 -22 68 20 0 37 -9 55 -31z m-406 -111 c-2
-27 -8 -34 -30 -36 -44 -5 -59 45 -18 61 39 14 51 8 48 -25z m1353 -19 c6 -12
9 -35 6 -53 -3 -17 2 -46 9 -65 20 -48 18 -54 -21 -75 -19 -11 -42 -30 -50
-42 -21 -33 -84 -32 -152 1 -62 31 -69 39 -78 88 l-7 37 54 25 c32 15 67 41
86 64 50 62 125 72 153 20z m3711 -66 c35 -38 58 -86 58 -123 0 -35 -8 -37
-43 -10 -24 19 -67 112 -67 145 0 23 24 18 52 -12z m129 -22 c32 -33 38 -61
12 -61 -25 0 -63 40 -63 67 0 31 15 29 51 -6z m-10563 -39 c16 -48 -3 -90 -53
-114 -36 -18 -46 -19 -59 -8 -20 15 -20 44 -2 78 7 15 20 41 27 57 8 17 18 33
23 37 15 10 54 -21 64 -50z m1776 48 c49 -18 21 -90 -34 -90 -30 0 -47 16 -45
40 1 8 3 21 3 28 2 10 18 21 49 31 1 1 13 -3 27 -9z m-3344 -15 c25 -30 -21
-92 -59 -80 -12 3 -26 15 -32 27 -22 42 60 91 91 53z m4357 -62 c7 -17 -40
-63 -64 -63 -17 0 -26 36 -13 60 14 25 68 28 77 3z m204 -34 c-2 -8 -4 -20 -4
-26 0 -15 -23 -17 -32 -3 -9 14 14 52 28 47 7 -3 10 -11 8 -18z m-601 -19 c11
-11 23 -34 27 -51 3 -18 19 -40 39 -56 38 -28 41 -41 19 -83 -19 -36 -62 -41
-90 -10 -13 14 -31 20 -63 20 -37 0 -50 6 -78 34 -29 29 -34 41 -34 79 0 50
13 65 63 77 59 14 96 11 117 -10z m-4422 -42 c3 -17 -48 -87 -65 -88 -7 0 -13
7 -13 15 0 8 -5 24 -12 34 -6 10 -8 26 -5 35 14 35 88 39 95 4z m8720 -156 c5
-33 -15 -52 -54 -52 -39 0 -49 12 -32 39 26 43 81 51 86 13z m-3174 -24 c24
-26 27 -36 22 -68 -8 -49 -50 -123 -87 -155 -21 -17 -42 -25 -69 -25 -32 0
-39 4 -50 30 -16 38 -7 82 31 159 52 104 95 121 153 59z m-980 -135 c-13 -38
-34 -41 -34 -6 0 34 19 58 34 43 6 -6 7 -19 0 -37z m8766 -77 c0 -14 -34 -28
-44 -18 -15 14 -4 32 19 32 15 0 25 -6 25 -14z m-1822 -36 c12 -16 22 -37 22
-47 0 -10 11 -35 25 -55 41 -61 34 -71 -29 -37 -48 25 -101 77 -110 106 -19
61 53 87 92 33z m-11013 -63 c10 -8 19 -28 20 -46 1 -26 -3 -35 -22 -44 -47
-21 -100 66 -55 92 23 14 35 13 57 -2z m8934 -79 c-1 -35 -4 -75 -8 -91 l-6
-27 -35 17 c-50 26 -67 61 -50 102 13 32 51 60 83 61 14 0 17 -9 16 -62z
m-5107 10 c-9 -9 -12 -7 -12 12 0 19 3 21 12 12 9 -9 9 -15 0 -24z m-941 -10
c56 -25 66 -42 44 -74 -34 -53 -155 -9 -155 56 0 45 38 52 111 18z m4229 -28
c0 -5 -4 -10 -10 -10 -5 0 -10 5 -10 10 0 6 5 10 10 10 6 0 10 -4 10 -10z
m3849 -59 c51 -47 35 -110 -23 -95 -37 9 -51 42 -47 107 2 26 35 21 70 -12z
m-7305 -53 c3 -13 5 -32 5 -43 1 -11 1 -33 2 -48 0 -33 -19 -97 -31 -97 -13 0
-23 42 -26 115 -2 55 1 73 14 83 23 17 31 15 36 -10z m-873 -149 c21 -41 -34
-139 -78 -139 -7 0 -22 9 -33 20 -16 16 -20 33 -20 83 0 65 5 81 30 89 21 7
87 -28 101 -53z m2399 41 c21 -11 46 -17 54 -14 9 3 26 0 39 -8 12 -8 38 -20
59 -27 55 -18 74 -64 58 -145 -14 -74 -30 -100 -73 -122 -17 -9 -49 -32 -69
-50 -60 -54 -178 -58 -178 -5 0 26 57 151 80 176 10 11 20 29 22 40 2 16 -3
20 -32 23 -60 4 -77 11 -83 32 -7 27 8 78 29 101 22 24 45 24 94 -1z m-975
-179 c21 -31 30 -55 32 -94 13 -231 15 -242 34 -263 10 -11 26 -42 36 -70 20
-59 40 -91 64 -104 15 -9 21 -4 37 32 10 24 26 49 35 57 27 22 22 51 -10 51
-36 0 -63 27 -63 62 0 41 41 116 88 162 35 34 45 38 73 32 103 -20 147 -103
99 -186 -21 -36 -37 -70 -50 -105 -22 -59 -55 -127 -67 -137 -11 -9 -93 -172
-93 -184 0 -13 31 2 84 42 89 67 102 72 128 46 24 -23 26 -52 14 -147 -17
-128 -56 -160 -154 -130 -57 17 -58 17 -100 -5 -52 -27 -102 -21 -131 15 -21
28 -47 31 -75 10 -51 -38 -140 -3 -225 90 -48 52 -58 85 -43 137 16 51 30 107
37 142 3 16 20 43 37 60 30 30 32 34 34 126 4 181 30 366 54 396 38 45 76 34
125 -35z m6235 55 c0 -8 -4 -18 -10 -21 -5 -3 -10 -4 -10 -1 0 2 -3 11 -6 20
-4 11 -1 16 10 16 9 0 16 -6 16 -14z m-1760 -97 c0 -25 -26 -25 -40 0 -7 14
-6 21 3 24 20 7 37 -4 37 -24z m-9008 -33 c13 -19 9 -59 -9 -78 -17 -19 -87
-25 -112 -9 -11 7 -10 15 9 42 44 64 88 82 112 45z m6433 -90 c19 -8 41 -28
49 -45 20 -38 21 -123 1 -161 -27 -53 -48 -60 -178 -60 l-119 0 7 -28 c15 -70
-90 -82 -161 -20 -27 24 -34 37 -30 53 5 18 -1 25 -35 41 -51 23 -66 55 -42
94 21 36 48 48 94 43 24 -3 49 2 75 16 21 12 55 21 74 21 20 0 74 13 120 29
101 35 101 35 145 17z m-2629 -41 c14 -14 31 -40 39 -58 23 -57 35 -179 25
-259 -12 -91 -13 -205 -2 -212 5 -3 25 15 46 39 56 68 76 62 104 -27 26 -86
27 -92 7 -108 -25 -21 -121 6 -149 42 l-22 28 -34 -25 c-46 -34 -91 -33 -131
3 l-30 27 -1 125 c0 101 4 137 21 189 11 35 21 80 21 100 0 72 37 161 67 161
7 0 25 -11 39 -25z m-301 -40 c20 -19 25 -34 25 -77 0 -30 -6 -78 -14 -108
-12 -47 -12 -59 0 -89 18 -43 18 -75 -2 -140 -30 -104 -90 -125 -192 -69 -77
42 -102 66 -102 98 0 31 49 80 98 100 43 17 52 36 52 117 1 152 69 235 135
168z m-331 -26 c33 -26 33 -58 1 -93 -35 -38 -84 -36 -107 5 -24 41 -23 55 7
84 30 30 64 32 99 4z m2555 -25 c64 -54 91 -85 91 -103 0 -15 6 -21 23 -21 49
-1 97 -64 97 -127 0 -49 -25 -73 -77 -73 -25 0 -38 8 -59 38 -16 20 -31 41
-35 46 -16 19 -100 -70 -137 -145 -41 -81 -105 -140 -173 -159 -29 -8 -41 -20
-61 -58 -29 -56 -58 -68 -58 -25 -1 15 -7 39 -15 53 -8 14 -14 44 -15 67 0 47
32 103 94 162 20 19 36 42 36 51 0 9 14 45 31 80 29 56 30 64 15 72 -44 25 2
91 73 104 20 3 47 14 61 23 54 35 81 39 109 15z m7023 -29 c76 -1 78 -1 117
-39 44 -43 81 -133 81 -196 0 -58 -44 -135 -94 -164 -23 -14 -48 -32 -56 -40
-7 -9 -25 -16 -41 -16 -16 0 -29 -4 -29 -8 0 -18 -70 -31 -103 -20 -77 26 -97
70 -97 211 l0 103 35 34 c28 27 34 39 30 66 -5 40 35 91 63 78 9 -4 52 -8 94
-9z m-684 -152 c5 -17 -26 -29 -40 -15 -6 6 -7 15 -3 22 9 14 37 9 43 -7z
m-4958 -56 c39 -20 37 -38 -2 -25 -43 14 -52 23 -44 45 6 13 9 14 15 4 5 -7
19 -18 31 -24z m-850 -17 c13 -7 28 -7 46 0 18 7 30 7 39 0 7 -6 32 -7 58 -4
42 6 49 4 76 -24 28 -27 31 -37 31 -89 0 -69 -18 -93 -85 -115 -24 -8 -45 -24
-55 -41 -14 -26 -14 -28 14 -50 26 -21 27 -24 11 -37 -19 -16 -56 -21 -73 -11
-7 4 -13 20 -14 37 -3 36 -13 44 -57 44 -53 0 -114 35 -144 81 -32 49 -34 72
-6 100 17 17 28 19 60 14 32 -5 40 -3 46 10 3 10 1 26 -6 37 -10 16 -9 23 5
39 20 22 28 23 54 9z m5830 -29 c12 -24 4 -48 -22 -62 -22 -12 -38 1 -38 33 0
47 39 67 60 29z m-439 -22 c29 -15 79 -98 79 -130 0 -41 -46 -81 -89 -77 -33
3 -36 6 -58 66 -20 58 -21 67 -9 97 8 18 22 38 33 44 23 13 20 13 44 0z m-325
-64 c87 -89 109 -156 54 -163 -59 -7 -90 -45 -90 -112 0 -15 -10 -36 -25 -50
-26 -24 -26 -24 -60 -6 -19 11 -35 23 -35 28 0 6 14 22 30 36 17 15 30 30 30
35 0 5 9 21 20 37 18 25 18 29 4 41 -21 18 -50 84 -58 135 -9 49 6 64 67 73 5
0 33 -24 63 -54z m-5351 -70 c60 -27 75 -47 75 -101 0 -57 -22 -74 -95 -74
-56 0 -66 3 -95 30 -30 28 -32 34 -28 80 6 57 30 90 65 90 13 0 48 -11 78 -25z
m5515 -187 c24 -26 25 -58 4 -144 -20 -78 -44 -98 -74 -62 -31 36 -34 65 -16
132 17 58 39 96 57 96 5 0 17 -10 29 -22z m1463 8 c7 -18 -29 -47 -49 -39 -13
5 -15 3 -9 -8 4 -8 4 -11 0 -6 -20 18 -14 44 13 54 37 15 39 15 45 -1z m-573
-31 c0 -28 -25 -44 -42 -27 -9 9 -7 17 7 32 24 27 35 25 35 -5z m-240 -97 c0
-23 -4 -29 -17 -26 -25 5 -42 56 -23 68 21 13 40 -7 40 -42z m657 6 c17 -34
17 -37 0 -66 -19 -33 -20 -28 28 -94 20 -28 -32 -77 -62 -58 -22 14 -69 81
-78 112 -6 21 -4 23 14 17 21 -6 30 8 11 20 -16 10 -12 67 7 87 27 30 61 23
80 -18z m-6017 -9 c0 -8 -7 -15 -15 -15 -16 0 -20 12 -8 23 11 12 23 8 23 -8z
m4048 -22 c5 -37 -15 -63 -49 -63 -29 0 -31 2 -24 28 14 57 66 82 73 35z
m2182 -28 c14 -9 13 -68 -2 -83 -17 -17 -73 -15 -88 3 -13 16 -7 69 11 91 10
12 51 6 79 -11z m-580 0 c7 -8 18 -15 24 -15 7 0 33 -13 59 -30 26 -16 54 -30
61 -30 23 0 66 -51 66 -79 0 -51 -93 -118 -145 -105 -66 17 -157 193 -132 258
8 20 51 21 67 1z m-665 -15 c15 -17 17 -27 9 -57 -13 -51 -36 -63 -71 -37 -34
26 -46 66 -26 93 18 27 64 27 88 1z m365 1 c16 -30 12 -94 -8 -117 -50 -62
-106 -61 -118 0 -13 74 24 136 82 136 23 0 37 -6 44 -19z m990 -22 c0 -5 -7
-9 -15 -9 -15 0 -20 12 -9 23 8 8 24 -1 24 -14z m-1710 -104 c0 -15 -29 -55
-40 -55 -19 0 -22 50 -5 77 17 25 18 26 31 8 8 -10 14 -24 14 -30z m438 -87
c9 -8 12 -22 7 -42 -4 -17 -8 -59 -8 -92 -2 -45 -7 -68 -21 -83 -24 -26 -38
-26 -61 -1 -14 16 -26 19 -55 14 -32 -5 -40 -2 -63 26 -35 41 -34 62 4 122 40
63 88 87 144 75 21 -4 45 -13 53 -19z m391 -34 c40 -33 39 -57 -2 -94 -18 -16
-41 -44 -51 -63 -19 -34 -90 -87 -118 -87 -19 0 -38 20 -38 40 0 8 14 33 30
54 17 22 30 50 30 63 0 13 9 32 20 43 11 11 20 25 20 30 0 6 5 10 10 10 6 0
10 7 10 15 0 25 55 18 89 -11z m-649 -24 c24 -24 27 -82 6 -99 -22 -19 -72 11
-79 46 -6 32 15 73 38 73 8 0 24 -9 35 -20z m-9976 -135 c23 -35 21 -85 -3
-85 -42 0 -90 77 -64 103 15 15 52 6 67 -18z m9871 4 c5 -5 24 -9 41 -9 40 0
64 -22 64 -59 0 -21 8 -31 35 -44 20 -9 51 -17 70 -17 47 0 52 -16 14 -48 -18
-15 -49 -44 -69 -64 -33 -35 -36 -37 -60 -23 -14 8 -35 19 -47 24 -35 16 -39
49 -9 80 34 35 33 44 -3 36 -17 -3 -32 -2 -36 4 -3 6 -15 11 -26 11 -11 0 -34
13 -50 30 -38 37 -37 81 1 91 27 7 59 2 75 -12z m-136 -23 c29 -30 35 -46 46
-118 14 -94 7 -113 -29 -79 -22 21 -30 22 -86 16 -68 -8 -88 2 -110 56 -15 36
-4 52 57 81 26 12 43 27 43 37 0 19 19 41 35 41 6 0 26 -15 44 -34z m-9539
-11 c27 -33 -16 -80 -58 -64 -18 7 -22 14 -17 31 13 43 52 60 75 33z m607 -47
c5 -7 16 -29 23 -48 7 -19 19 -40 27 -46 15 -13 54 -7 64 9 19 28 85 -45 72
-79 -3 -7 0 -29 6 -47 9 -26 9 -46 0 -78 -6 -24 -12 -64 -13 -89 -2 -52 -16
-82 -58 -126 -36 -38 -56 -35 -98 12 -28 32 -30 33 -40 15 -8 -16 -6 -23 8
-33 60 -44 69 -118 21 -173 -40 -46 -67 -52 -117 -26 -42 21 -62 65 -36 79 7
4 27 34 43 67 25 49 28 62 18 75 -24 28 -37 65 -42 109 -3 36 0 48 17 63 23
20 48 9 48 -21 0 -10 6 -26 14 -37 14 -19 15 -19 40 5 30 28 34 59 9 68 -10 4
-31 17 -47 30 -20 17 -31 21 -36 13 -5 -8 -9 -4 -13 9 -3 12 0 19 6 18 6 -1
11 4 12 11 0 7 7 17 15 23 13 8 12 12 -6 27 -16 13 -20 26 -17 48 2 16 5 40 7
54 5 44 16 69 34 73 28 8 29 7 39 -5z m-747 -91 c22 -16 23 -19 10 -30 -9 -7
-14 -20 -12 -29 2 -10 -1 -18 -7 -18 -10 0 -15 14 -12 32 0 4 -7 4 -16 1 -13
-5 -15 -2 -10 17 3 13 2 29 -3 35 -15 18 22 12 50 -8z m2627 -3 c39 -23 47
-24 79 -14 47 16 98 7 143 -24 20 -14 65 -35 101 -47 36 -12 71 -26 78 -32 7
-5 49 -13 93 -17 68 -6 85 -12 117 -37 20 -17 48 -33 60 -37 42 -14 53 -89 31
-210 -10 -51 -9 -71 5 -121 10 -33 17 -68 17 -77 0 -10 4 -18 9 -18 11 0 23
40 19 66 -8 57 15 203 41 259 35 77 59 99 99 90 17 -4 31 -12 31 -18 0 -7 12
-37 26 -67 15 -30 35 -88 45 -129 11 -41 26 -88 34 -104 8 -17 15 -36 15 -44
0 -7 6 -13 13 -13 6 0 -3 -13 -21 -29 -26 -23 -32 -34 -27 -54 5 -20 1 -28
-28 -46 -36 -22 -52 -46 -41 -62 3 -5 -1 -9 -10 -9 -8 0 -26 -15 -41 -32 -60
-71 -96 -78 -140 -26 -14 16 -33 28 -42 27 -29 -4 -73 12 -132 47 -31 19 -93
52 -139 74 -56 27 -99 57 -135 94 -28 29 -66 63 -84 75 -18 12 -51 49 -74 81
-27 38 -65 76 -108 105 -36 25 -79 61 -94 80 -16 20 -52 54 -80 76 -39 31 -58
55 -74 96 -27 65 -19 93 26 93 16 0 44 7 62 15 49 21 76 18 126 -11z m-2267
-44 c25 -25 25 -31 0 -58 -32 -34 -70 -39 -92 -12 -24 29 -23 45 4 70 28 25
62 26 88 0z m238 -25 c13 -27 7 -35 -25 -35 -55 0 -82 39 -46 65 22 16 57 1
71 -30z m9609 -16 c-17 -39 -81 -99 -106 -99 -28 0 -54 35 -43 57 30 55 126
111 150 88 11 -10 11 -18 -1 -46z m-1373 9 c21 -29 21 -68 0 -68 -39 0 -80 44
-68 74 9 23 50 19 68 -6z m-9688 -12 c7 -18 -55 -78 -74 -71 -7 3 -18 5 -23 5
-18 0 -9 35 15 55 29 25 74 31 82 11z m834 0 c0 -3 -4 -8 -10 -11 -5 -3 -10
-1 -10 4 0 6 5 11 10 11 6 0 10 -2 10 -4z m3906 -57 c15 -16 21 -47 29 -152
12 -151 8 -195 -20 -211 -10 -6 -27 -20 -36 -31 -13 -15 -31 -19 -79 -21 -40
-1 -65 -6 -71 -15 -7 -11 -11 -11 -21 -1 -9 9 -13 44 -12 115 1 130 18 213 50
242 13 12 24 29 24 36 0 8 7 25 16 37 21 30 93 31 120 1z m6764 -4 c18 -22 25
-102 10 -120 -17 -21 -70 -19 -86 3 -18 23 -17 83 2 110 17 25 56 29 74 7z
m-6584 -65 c1 -36 8 -100 16 -143 14 -74 14 -79 -3 -91 -11 -7 -17 -15 -14
-18 3 -3 -2 -11 -11 -19 -13 -11 -18 -11 -21 -1 -3 6 -13 12 -24 12 -14 0 -19
7 -19 28 0 15 0 54 0 87 0 51 14 160 26 203 2 7 14 12 26 10 21 -3 23 -9 24
-68z m-2895 10 c10 -6 25 -23 33 -38 8 -15 35 -48 60 -72 65 -63 81 -125 47
-189 -11 -19 -9 -21 19 -21 20 0 40 -9 57 -26 15 -15 40 -27 60 -29 50 -5 77
-27 127 -104 26 -41 66 -86 98 -110 29 -23 66 -51 83 -63 16 -13 45 -38 65
-55 19 -18 51 -36 70 -39 40 -7 66 -27 86 -65 9 -18 24 -29 46 -33 18 -3 47
-18 63 -34 32 -30 93 -70 171 -113 27 -15 85 -61 128 -101 43 -40 94 -82 114
-93 35 -20 199 -138 234 -169 12 -10 19 -11 27 -3 9 9 11 -1 9 -40 -3 -45 -6
-52 -20 -47 -10 3 -18 1 -18 -5 0 -6 6 -11 13 -11 7 -1 5 -6 -5 -14 -10 -7
-18 -16 -18 -20 0 -11 28 -6 33 7 3 7 9 0 16 -15 10 -26 31 -39 31 -19 0 5 18
11 40 13 22 2 40 0 40 -4 0 -9 -40 -32 -57 -33 -7 0 -19 -9 -27 -20 -9 -11
-16 -14 -16 -7 0 6 -10 12 -22 11 -13 0 -18 -3 -11 -5 15 -7 5 -73 -15 -96
-14 -17 -13 -18 11 -18 34 0 33 -7 -2 -48 -20 -23 -27 -40 -23 -57 3 -19 -5
-35 -34 -65 -24 -24 -38 -48 -36 -59 2 -12 -5 -24 -17 -31 -12 -6 -21 -20 -21
-30 0 -11 -3 -20 -8 -20 -16 0 -30 -37 -20 -51 8 -11 9 -11 4 3 -3 10 0 20 6
24 7 5 9 -2 4 -22 -4 -16 -8 -40 -10 -54 -2 -26 -11 -53 -27 -82 -5 -10 -6
-18 -1 -18 4 0 6 -18 4 -39 -4 -43 -4 -43 -72 -14 -19 9 -44 24 -55 34 -11 10
-54 32 -95 49 -60 25 -97 32 -185 39 -60 4 -121 14 -135 21 -17 9 -71 15 -169
16 -132 3 -146 5 -165 24 -12 12 -37 29 -56 38 -44 22 -80 75 -80 119 0 19 -5
54 -11 79 -9 34 -8 51 1 74 11 27 10 33 -8 53 -11 12 -30 46 -41 74 -31 78
-123 196 -171 217 -41 18 -80 69 -80 105 0 13 14 29 40 46 l39 25 -29 56 c-32
59 -40 138 -21 186 5 13 12 35 15 51 5 19 13 27 29 27 20 1 21 2 5 14 -15 11
-17 21 -9 60 10 54 40 91 81 99 23 5 27 10 23 27 -7 26 -41 40 -98 40 -25 0
-50 6 -59 15 -8 8 -19 15 -25 15 -6 0 -11 4 -11 8 0 4 -13 16 -30 25 -16 10
-30 25 -30 33 0 18 -57 54 -86 54 -11 0 -30 9 -42 20 -19 18 -22 32 -22 90 0
63 3 72 27 95 18 16 39 25 59 25 39 0 49 21 29 60 -18 35 -35 47 -35 26 0 -9
-4 -16 -10 -16 -5 0 -10 6 -10 13 0 7 -3 8 -8 2 -13 -18 -63 -17 -83 1 -39 35
-10 74 44 60 37 -9 48 7 51 70 1 33 6 65 10 72 9 15 60 16 87 2z m-1910 -64
c34 -29 54 -33 66 -12 4 7 23 21 41 30 32 16 33 16 41 -6 8 -22 6 -56 -4 -87
-4 -10 -17 -12 -51 -6 -43 6 -47 4 -89 -34 -27 -25 -54 -41 -69 -41 -17 0 -35
-13 -57 -40 -18 -22 -40 -42 -50 -45 -22 -7 -85 32 -98 63 -15 32 12 98 45
106 13 4 34 22 46 40 47 71 117 84 179 32z m5375 -19 c9 -27 -25 -51 -75 -53
-20 -1 -30 0 -22 3 11 5 11 7 0 14 -11 7 -9 9 6 9 17 1 17 3 -5 12 l-25 11 37
11 c20 6 39 14 43 18 11 11 34 -2 41 -25z m735 -37 c22 -68 24 -114 5 -129
-15 -13 -100 -11 -112 2 -4 4 -15 7 -24 7 -34 0 -60 38 -60 89 0 57 15 74 58
65 20 -4 38 -1 54 10 39 28 59 17 79 -44z m421 -2 c-15 -15 -26 -4 -18 18 5
13 9 15 18 6 9 -9 9 -15 0 -24z m-5648 -39 c48 -38 27 -109 -33 -109 -79 0
-78 121 0 129 4 1 18 -8 33 -20z m8175 -33 c29 -31 24 -63 -12 -90 l-29 -21
-19 24 c-18 23 -27 90 -12 104 14 15 51 6 72 -17z m-9779 -131 c-7 -8 -9 -19
-6 -24 11 -17 -11 -22 -24 -6 -10 13 -9 19 5 35 20 22 43 17 25 -5z m5283 -52
c-7 -2 -21 -2 -30 0 -10 3 -4 5 12 5 17 0 24 -2 18 -5z m-1085 -80 c-2 -10
-10 -18 -18 -18 -8 0 -16 8 -18 18 -2 12 3 17 18 17 15 0 20 -5 18 -17z m5660
-31 c4 -48 -16 -58 -42 -21 -11 17 -12 27 -3 46 17 38 41 25 45 -25z m2772
-41 c14 -27 13 -51 -3 -51 -13 0 -37 40 -37 60 0 18 29 10 40 -9z m-1260 -56
c34 -62 45 -105 27 -105 -7 0 -27 12 -44 28 -17 15 -43 35 -57 45 -31 22 -36
73 -8 80 38 11 55 1 82 -48z m-10567 5 c37 -29 41 -53 17 -99 -23 -47 -47 -56
-121 -49 -33 4 -54 11 -64 24 -44 59 -17 117 56 122 24 2 48 7 54 13 14 14 30
11 58 -11z m11251 -35 c7 -20 -3 -45 -19 -45 -7 0 -15 7 -19 15 -7 20 3 45 19
45 7 0 15 -7 19 -15z m-10854 -17 c23 -25 27 -73 6 -81 -23 -9 -71 8 -74 27
-6 29 7 64 26 69 9 3 18 5 19 6 1 0 11 -9 23 -21z m671 -9 c73 -37 92 -121 36
-162 l-27 -21 -45 22 c-73 36 -107 125 -64 171 22 24 36 23 100 -10z m10935
-6 c1 -13 -2 -23 -6 -23 -4 0 -12 -11 -18 -25 -8 -16 -20 -25 -35 -25 -13 0
-28 -5 -34 -11 -13 -13 -85 5 -103 26 -23 28 21 60 105 75 66 13 90 8 91 -17z
m-12367 -12 c9 -6 10 -11 2 -15 -6 -4 -11 -20 -11 -36 0 -56 -27 -79 -58 -48
-13 13 -17 90 -5 101 9 10 55 8 72 -2z m2026 -22 c42 -25 55 -46 55 -91 0 -37
-6 -48 -34 -64 -11 -6 -22 -16 -24 -23 -3 -9 3 -8 20 3 14 9 27 13 30 10 4 -3
28 -6 55 -6 37 0 51 5 62 21 7 12 21 21 30 21 14 0 14 -2 1 -10 -13 -8 -12
-10 3 -10 9 0 17 -4 17 -10 0 -5 -7 -10 -16 -10 -8 0 -12 -4 -9 -10 3 -5 -24
-40 -61 -77 l-66 -67 -37 20 c-24 13 -39 30 -45 51 -9 31 -12 32 -51 26 -37
-5 -44 -2 -68 26 -30 36 -44 93 -31 130 7 18 21 29 49 36 21 7 41 17 43 23 2
7 10 12 18 12 8 0 14 5 14 10 0 14 4 13 45 -11z m10387 14 c-6 -2 -10 -9 -6
-14 3 -5 1 -9 -4 -9 -6 0 -12 7 -16 15 -4 11 1 15 17 14 12 0 16 -3 9 -6z
m-10182 -43 c0 -31 -15 -48 -23 -27 -7 19 4 68 14 61 5 -3 9 -18 9 -34z
m-1319 -51 c29 -15 40 -51 28 -91 -5 -18 -14 -57 -19 -86 -5 -29 -18 -64 -28
-77 -17 -21 -18 -30 -8 -66 10 -39 9 -42 -17 -65 -35 -30 -52 -30 -113 1 -60
30 -79 31 -124 4 l-35 -22 35 -26 c19 -14 55 -45 79 -68 40 -39 43 -46 36 -79
-6 -35 -48 -83 -72 -84 -14 0 -80 36 -107 59 -10 9 -24 28 -32 43 -13 24 -12
34 2 80 10 29 21 58 26 64 6 8 -3 19 -26 33 -34 21 -60 70 -50 94 14 34 53 47
148 50 95 4 126 11 90 22 -57 18 -90 42 -100 75 -22 65 22 104 102 92 27 -5
54 -5 59 0 70 61 88 68 126 47z m-506 -155 c23 -9 43 -55 36 -84 -10 -36 -61
-63 -95 -50 -43 16 -61 87 -29 122 16 18 57 24 88 12z m9334 -100 c12 -15 21
-33 21 -41 0 -11 9 -8 30 10 59 50 130 41 185 -25 29 -34 30 -46 11 -93 -18
-41 -42 -45 -58 -10 -12 28 -31 27 -78 -3 -13 -8 -38 -18 -54 -22 -21 -4 -32
-13 -36 -30 -8 -33 -35 -37 -54 -8 -24 37 -56 137 -56 175 0 73 49 98 89 47z
m-1169 -10 c0 -8 11 -32 25 -52 40 -59 28 -139 -29 -191 -14 -14 -26 -35 -26
-48 0 -31 -29 -42 -46 -18 -19 26 -17 97 6 184 11 41 20 82 20 91 0 22 29 62
41 55 5 -4 9 -13 9 -21z m-7262 -36 c14 -14 16 -32 2 -23 -14 8 -23 -39 -16
-79 5 -25 14 -37 36 -46 40 -17 42 -22 25 -58 -24 -46 -42 -58 -63 -40 -22 20
-66 31 -125 33 -58 2 -98 29 -111 74 -15 52 14 73 109 79 70 4 76 6 73 25 -2
14 5 25 22 34 31 16 33 16 48 1z m-1883 -73 c31 -30 32 -57 1 -89 -30 -33 -59
-33 -85 0 -28 36 -26 68 5 93 34 27 50 26 79 -4z m2212 0 c24 -17 59 -98 48
-114 -14 -23 -79 -11 -140 25 -33 20 -72 38 -87 39 -15 1 -35 8 -44 15 -26 23
10 42 62 34 24 -3 50 -1 61 5 26 15 75 13 100 -4z m6753 -8 c0 -17 -56 -84
-64 -76 -10 9 12 60 32 75 22 17 32 17 32 1z m-6212 -40 c2 -10 1 -29 -2 -43
-11 -42 -76 -27 -76 18 0 10 7 18 16 18 11 0 14 5 10 16 -5 12 0 15 21 12 17
-2 29 -10 31 -21z m7462 -14 c27 -35 25 -106 -3 -111 -34 -7 -67 8 -82 38 -21
40 -19 66 7 84 32 23 54 20 78 -11z m-7409 -242 c52 -33 75 -74 92 -163 l11
-61 -34 -28 c-41 -35 -96 -39 -127 -10 -15 14 -22 38 -28 97 -13 133 -12 164
10 180 25 18 24 19 76 -15z m-463 8 c38 -13 46 -32 27 -70 -22 -42 -56 -62
-87 -50 -47 18 -50 60 -9 102 34 33 29 32 69 18z m9809 -4 c48 -33 23 -100
-35 -93 -23 2 -28 9 -30 36 -2 22 3 41 14 53 21 23 24 23 51 4z m-7710 -36 c2
-19 -22 -38 -33 -26 -7 7 14 47 24 47 4 0 8 -9 9 -21z m41 -12 c-28 -10 -36 0
-12 17 14 11 21 11 26 3 4 -7 -1 -15 -14 -20z m6242 10 c0 -24 -31 -57 -55
-57 -32 0 -41 17 -20 40 15 16 26 21 68 29 4 0 7 -5 7 -12z m-9197 -80 c16
-11 32 -29 36 -40 10 -26 -7 -97 -23 -97 -17 0 -50 37 -75 85 -44 83 -15 107
62 52z m11587 18 c0 -8 4 -15 10 -15 16 0 23 -49 9 -66 -11 -14 -14 -13 -25 8
-16 27 -18 88 -4 88 6 0 10 -7 10 -15z m-57 -57 c13 -19 2 -48 -17 -48 -18 0
-28 27 -20 52 6 21 23 20 37 -4z m-1760 -24 c-2 -29 -29 -58 -44 -48 -16 10
-10 63 9 73 26 15 37 7 35 -25z m-6882 -6 c18 -16 19 -19 6 -15 -10 4 -28 7
-40 8 -12 0 -16 3 -9 6 6 2 10 9 6 14 -10 17 13 9 37 -13z m2469 2 c8 -5 12
-10 8 -10 -5 0 1 -9 12 -20 23 -23 57 -26 95 -8 29 13 45 3 48 -31 1 -11 5
-21 9 -21 4 0 8 -9 8 -20 0 -40 69 -98 111 -92 8 2 24 -7 34 -18 23 -25 39
-26 25 -1 -16 30 7 37 30 9 22 -27 25 -38 8 -38 -6 0 13 -24 43 -53 60 -58
107 -114 158 -190 34 -51 83 -102 204 -214 40 -37 67 -70 67 -82 0 -11 5 -23
11 -26 16 -11 79 -144 94 -202 9 -33 14 -113 15 -220 0 -92 3 -181 5 -198 2
-16 9 -73 15 -125 6 -52 14 -106 18 -120 12 -44 6 -322 -8 -395 -7 -38 -14
-83 -16 -100 -9 -90 -24 -188 -38 -249 -8 -38 -13 -73 -10 -77 2 -4 -2 -23
-10 -41 -24 -54 -66 -193 -66 -217 0 -12 -7 -35 -15 -50 -8 -16 -12 -31 -9
-34 3 -3 -5 -27 -19 -54 -37 -71 -57 -119 -57 -135 0 -8 -9 -23 -20 -33 -11
-10 -20 -24 -20 -32 0 -7 -4 -13 -9 -13 -5 0 -12 -9 -16 -19 -3 -11 -16 -23
-27 -27 -12 -4 -36 -19 -52 -35 -17 -16 -36 -29 -43 -29 -6 0 -13 -4 -15 -9
-5 -15 -118 -82 -128 -76 -4 3 -11 -4 -15 -15 -3 -11 -13 -20 -20 -20 -8 0
-23 -9 -34 -21 -16 -18 -32 -25 -63 -28 -4 -1 -8 -11 -10 -23 -3 -21 -9 -23
-59 -23 -40 0 -63 -5 -76 -17 -11 -10 -25 -18 -31 -18 -7 0 -12 -3 -12 -7 0
-15 -71 -12 -77 3 -3 8 -19 14 -37 14 -17 0 -42 9 -56 20 -14 11 -36 20 -50
20 -27 1 -70 31 -70 49 0 6 -9 16 -20 23 -11 7 -20 23 -20 35 0 13 -4 23 -10
23 -5 0 -7 7 -3 16 3 9 2 19 -3 23 -5 3 -17 17 -25 31 -12 19 -13 28 -5 37 6
7 17 19 24 28 7 8 24 15 37 15 13 0 31 7 40 16 8 9 24 14 34 11 14 -3 21 2 25
17 10 38 6 75 -9 84 -14 7 -14 11 0 38 8 16 15 34 15 40 0 24 -52 104 -68 105
-66 4 -84 10 -115 34 -20 14 -34 32 -31 39 3 8 -5 16 -19 19 -23 6 -29 15 -63
91 -13 28 -15 43 -7 55 13 20 113 35 162 25 20 -4 53 -7 74 -5 21 2 43 -2 50
-7 19 -16 119 -52 144 -52 12 0 43 -20 69 -45 27 -24 51 -46 54 -47 14 -7 47
-117 43 -141 -5 -24 -2 -27 23 -28 16 -1 33 -1 38 0 5 1 6 -7 3 -18 -4 -16 1
-21 22 -23 18 -2 26 -8 24 -21 0 -12 4 -16 13 -13 7 3 16 1 18 -3 3 -5 17 -6
31 -3 25 4 35 35 15 47 -6 4 -8 10 -5 15 3 5 1 19 -6 31 -6 12 -7 24 -2 28 22
15 53 119 32 106 -5 -4 -5 5 1 20 6 15 7 31 4 37 -3 5 4 16 16 25 15 11 20 22
16 38 -3 12 -3 25 1 29 11 11 14 36 18 155 3 110 2 115 -22 138 -24 25 -24 59
0 74 16 11 -1 39 -24 39 -11 0 -35 16 -52 35 -17 19 -37 35 -46 35 -11 0 -10
3 5 14 10 8 15 18 11 22 -4 5 -12 2 -17 -6 -9 -13 -10 -13 -10 0 -1 25 -97
160 -115 160 -6 0 -25 15 -41 33 -40 44 -126 117 -137 117 -5 0 -21 10 -36 23
-22 18 -36 22 -74 19 -26 -2 -47 -9 -47 -14 0 -6 13 -26 30 -44 33 -38 53 -99
48 -147 -4 -38 -29 -47 -43 -15 -13 30 -89 67 -140 69 -22 1 -53 4 -70 8 -26
6 -50 2 -105 -17 -8 -3 -23 -6 -34 -7 -10 -2 -23 -10 -28 -19 -11 -19 -40 -22
-32 -3 2 7 -6 28 -18 47 l-23 33 -102 2 c-91 1 -106 4 -128 23 -14 13 -23 27
-20 32 4 6 10 8 15 5 4 -3 11 2 14 11 4 9 13 14 21 10 11 -4 19 3 26 21 10 27
9 30 -34 54 -10 6 -14 15 -10 22 4 6 6 24 5 38 -2 18 6 34 21 46 13 10 26 25
30 33 4 8 15 29 25 45 10 17 22 42 25 57 5 18 16 30 32 34 14 3 25 9 26 13 1
3 3 17 5 31 5 38 21 112 29 138 6 17 3 22 -10 22 -25 0 -12 24 14 28 15 2 21
0 17 -7 -4 -6 -3 -11 2 -11 6 0 8 -9 5 -20 -4 -14 1 -22 19 -29 28 -11 43 -27
53 -59 9 -30 15 -37 117 -144 46 -49 88 -88 95 -88 7 0 16 -6 20 -13 9 -15 82
-39 94 -31 5 3 18 0 29 -6 12 -6 31 -13 42 -15 11 -3 28 -11 37 -18 9 -8 31
-19 50 -26 42 -14 237 -15 246 -1 3 6 1 10 -4 10 -20 0 -11 28 14 48 14 11 43
23 64 27 33 5 38 9 33 27 -4 17 -2 20 12 15 22 -9 106 11 127 29 21 18 39 18
39 -1 0 -8 6 -15 14 -15 9 0 12 7 9 20 -3 11 -10 20 -15 20 -5 0 -6 5 -3 10 4
6 -1 22 -10 37 -23 34 -8 47 54 46 35 0 51 4 55 14 3 8 10 11 16 8 15 -9 30
39 30 97 0 74 -29 148 -58 148 -13 0 -30 39 -36 87 -4 30 -2 46 10 57 8 9 13
16 9 16 -3 0 1 10 9 22 14 19 14 23 -2 34 -14 11 -14 13 -2 14 13 0 13 1 0 10
-13 8 -12 10 3 10 20 0 22 18 4 41 -18 24 -140 59 -192 56 -22 -2 -30 2 -29
15 1 11 -9 18 -33 23 -18 3 -31 10 -28 16 4 5 1 9 -4 9 -6 0 -11 -4 -11 -9 0
-5 -39 -7 -87 -5 -49 2 -110 0 -138 -4 -37 -6 -57 -4 -76 7 -23 13 -30 13 -60
0 -19 -7 -38 -12 -44 -10 -22 7 -71 6 -94 -1 -17 -6 -29 -4 -42 8 -11 10 -19
14 -19 10 0 -3 -13 0 -30 9 -35 18 -63 20 -58 3 3 -8 -13 -17 -41 -25 -72 -19
-84 -17 -79 12 3 14 1 25 -3 25 -9 0 -13 -15 -10 -37 1 -9 -11 -13 -36 -12
-21 1 -31 3 -22 6 22 5 13 43 -10 43 -9 0 -23 -9 -31 -20 -8 -11 -24 -20 -35
-20 -11 0 -15 4 -10 8 6 4 12 20 13 36 1 17 6 32 11 35 15 10 -12 74 -32 77
-31 4 -30 11 2 22 30 11 43 32 20 32 -6 0 -9 7 -5 15 3 8 0 15 -5 15 -7 0 -9
11 -7 25 4 19 0 26 -16 31 -12 4 -22 6 -24 5 -2 -1 -13 8 -24 21 -13 16 -18
31 -14 50 5 23 2 28 -14 28 -12 0 -20 7 -20 18 0 15 -2 15 -10 2 -9 -13 -12
-13 -20 2 -8 14 -16 15 -35 8 -17 -7 -25 -6 -25 1 0 6 -7 8 -16 5 -10 -4 -14
-1 -11 6 2 8 16 12 35 10 24 -3 32 1 32 12 0 9 7 16 16 16 14 0 14 -3 4 -15
-10 -12 -10 -15 0 -15 7 0 19 8 26 18 8 10 13 12 14 5 0 -7 7 -13 15 -13 9 0
27 -7 41 -17 25 -16 25 -16 18 10 -6 28 4 35 23 16 14 -14 32 -4 43 25 8 18 9
19 9 2 1 -15 4 -16 16 -6 10 9 19 9 28 2 6 -6 17 -10 22 -9 6 1 11 -8 13 -20
2 -12 10 -27 18 -33 11 -10 14 -9 14 9 0 11 -4 21 -10 21 -5 0 -10 5 -10 10 0
6 6 10 13 9 6 -1 20 1 29 5 18 8 40 -7 51 -34 3 -10 6 -7 6 8 1 12 6 22 11 22
6 0 15 11 22 25 6 13 14 22 18 20 4 -3 10 8 13 24 9 42 34 47 43 8 3 -18 12
-35 18 -39 16 -11 36 -10 36 2 0 6 -7 10 -15 10 -8 0 -15 2 -15 4 0 2 -3 11
-6 20 -4 11 0 16 12 16 16 0 17 -2 4 -10 -12 -8 -11 -10 8 -10 19 0 28 11 20
24 -2 2 6 13 16 25 11 12 14 21 9 21 -18 0 -22 26 -4 27 9 1 33 8 55 16 25 9
50 12 72 7 37 -9 57 4 22 13 -17 5 -19 9 -10 20 7 8 9 17 5 20 -10 10 10 8 27
-3z m-270 -20 c0 -5 -15 -10 -32 -10 -25 0 -29 3 -18 10 20 13 50 13 50 0z
m153 -6 c-23 -17 -44 -18 -38 -1 3 6 17 13 31 13 23 2 24 1 7 -12z m1691 5
c31 -15 38 -50 19 -112 -8 -27 -13 -58 -10 -67 5 -21 -10 -50 -27 -50 -7 0
-25 13 -40 28 -24 26 -25 30 -11 42 12 10 16 26 13 52 -2 21 0 38 4 38 5 0 8
10 7 23 l0 22 -16 -22 c-21 -31 -37 -29 -29 3 13 51 41 65 90 43z m-2104 -44
c-7 -9 -15 -13 -19 -10 -3 3 1 10 9 15 21 14 24 12 10 -5z m298 7 c9 -6 10
-15 3 -33 -5 -13 -10 -21 -10 -16 -2 18 -4 23 -12 40 -10 18 -2 22 19 9z
m6418 -48 c11 -45 -23 -61 -50 -22 -14 20 -14 24 0 39 20 22 42 14 50 -17z
m-6378 5 c-2 -6 -8 -10 -13 -10 -5 0 -11 4 -13 10 -2 6 4 11 13 11 9 0 15 -5
13 -11z m-4794 -10 c13 -7 30 -25 37 -41 11 -26 10 -32 -9 -51 -18 -17 -26
-19 -49 -11 -25 8 -28 15 -31 62 -3 57 4 63 52 41z m11294 -82 c3 -23 0 -28
-15 -25 -11 2 -19 14 -21 31 -3 23 0 28 15 25 11 -2 19 -14 21 -31z m-6958
-17 c0 -5 -2 -10 -4 -10 -3 0 -8 5 -11 10 -3 6 -1 10 4 10 6 0 11 -4 11 -10z
m47 -16 c-3 -3 -12 -4 -19 -1 -8 3 -5 6 6 6 11 1 17 -2 13 -5z m-5976 -87 c25
-19 28 -41 12 -75 -35 -71 -133 -54 -133 24 0 48 81 82 121 51z m5829 -18 c0
-5 -4 -9 -10 -9 -5 0 -10 7 -10 16 0 8 5 12 10 9 6 -3 10 -10 10 -16z m45 0
c11 -17 -1 -21 -15 -4 -8 9 -8 15 -2 15 6 0 14 -5 17 -11z m6005 -38 c0 -11
-4 -22 -9 -25 -12 -8 -34 21 -26 34 11 17 35 11 35 -9z m-9820 -38 c59 -41 66
-88 21 -134 -41 -40 -83 -39 -122 3 -22 25 -29 42 -29 75 0 24 6 48 16 57 20
21 83 20 114 -1z m8790 -13 c0 -5 -8 -10 -17 -10 -15 0 -16 2 -3 10 19 12 20
12 20 0z m-4975 -105 c19 -25 25 -27 38 -17 9 8 18 9 21 3 3 -5 -6 -14 -21
-19 l-28 -10 27 -1 c38 -1 58 -11 58 -28 0 -9 -6 -13 -15 -9 -9 3 -15 0 -15
-10 0 -13 -4 -13 -30 1 -16 9 -30 21 -30 28 0 8 -4 7 -11 -3 -8 -12 -9 -11 -5
5 4 15 -5 27 -36 48 -27 19 -37 31 -29 36 22 14 52 4 76 -24z m-55 -75 c0 -5
-5 -10 -11 -10 -5 0 -7 5 -4 10 3 6 8 10 11 10 2 0 4 -4 4 -10z m3870 -15 c0
-17 -24 -35 -35 -27 -13 9 -13 35 -1 44 13 9 36 -2 36 -17z m-3920 -15 c0 -5
-5 -10 -11 -10 -5 0 -7 5 -4 10 3 6 8 10 11 10 2 0 4 -4 4 -10z m6756 -25 c7
-30 -19 -75 -44 -75 -31 0 -45 16 -38 43 14 56 70 78 82 32z m-7012 -25 c23 0
47 -5 54 -12 9 -9 12 -7 12 10 0 12 5 22 10 22 17 0 11 -26 -10 -45 -11 -10
-21 -32 -22 -49 l-1 -31 -4 32 -4 33 -22 -20 c-16 -15 -23 -17 -29 -8 -6 10
-15 9 -40 -5 -18 -10 -34 -14 -36 -9 -4 12 -42 3 -42 -9 0 -5 -9 -9 -20 -9
-11 0 -20 -4 -20 -10 0 -5 -4 -10 -10 -10 -5 0 -9 3 -9 8 1 4 0 9 -1 12 -10
26 -4 53 12 58 15 4 16 7 6 20 -11 13 -10 14 11 7 15 -5 21 -4 17 3 -9 14 7
23 51 28 21 3 39 7 43 10 3 3 6 -1 8 -10 3 -12 15 -16 46 -16z m-2401 -22
c101 -109 130 -187 89 -239 -18 -21 -21 -22 -65 -10 -50 15 -80 43 -121 113
-27 48 -58 74 -76 63 -15 -9 -50 33 -50 60 0 30 30 45 76 38 18 -3 35 0 38 6
4 6 21 11 38 11 24 0 41 -10 71 -42z m2802 32 c3 -5 1 -10 -4 -10 -6 0 -11 5
-11 10 0 6 2 10 4 10 3 0 8 -4 11 -10z m-265 -43 c0 -20 -8 -26 -29 -20 -16 4
-17 9 -8 33 9 23 13 26 24 15 7 -8 13 -20 13 -28z m50 27 c0 -13 -22 -44 -32
-44 -2 0 -4 14 -5 30 -2 24 2 30 17 30 12 0 20 -7 20 -16z m-2024 -55 c17 -9
46 -20 65 -24 44 -9 89 -28 89 -37 0 -5 7 -8 15 -8 8 0 17 -11 21 -25 3 -14
10 -25 15 -25 5 0 9 -7 9 -16 0 -8 5 -12 10 -9 16 10 12 -11 -5 -25 -20 -16
-19 -30 1 -30 9 0 30 -15 48 -34 28 -28 31 -36 20 -50 -12 -17 -55 -14 -81 6
-7 5 -14 5 -18 -2 -12 -20 7 -30 56 -30 27 0 49 -4 49 -10 0 -5 -7 -7 -15 -4
-17 7 -19 0 -5 -26 5 -10 23 -23 39 -28 23 -8 32 -20 41 -51 6 -23 15 -41 21
-41 5 0 9 -6 8 -12 -3 -17 20 -71 33 -79 6 -4 11 -32 11 -63 0 -42 3 -56 13
-52 14 5 24 -15 24 -50 0 -13 9 -32 19 -41 11 -9 18 -20 15 -25 -3 -4 4 -21
15 -37 12 -16 21 -39 21 -50 0 -12 5 -21 10 -21 21 0 9 -54 -19 -85 -31 -36
-45 -86 -56 -200 -9 -91 7 -189 46 -290 17 -44 49 -138 71 -210 21 -71 46
-140 54 -152 8 -13 14 -47 14 -84 0 -74 20 -113 82 -155 30 -21 37 -30 24 -32
-9 -2 -28 -9 -41 -16 l-24 -13 25 -36 c14 -20 29 -37 33 -37 12 0 39 43 47 74
6 24 10 26 59 26 29 0 59 2 67 5 10 4 12 -5 10 -40 -3 -37 1 -52 22 -80 15
-19 35 -35 45 -35 13 0 28 -18 46 -55 14 -30 32 -55 38 -55 7 0 23 -24 37 -52
14 -30 36 -58 50 -65 40 -19 70 -45 70 -58 0 -7 9 -24 20 -38 26 -33 50 -107
90 -277 17 -74 52 -207 77 -295 86 -306 123 -444 123 -462 0 -10 -14 -27 -31
-37 -145 -86 -318 -309 -399 -515 -12 -30 -36 -72 -55 -92 -19 -21 -45 -62
-59 -91 -23 -47 -37 -61 -123 -118 -83 -54 -298 -180 -309 -180 -2 0 -74 -32
-161 -70 -157 -70 -330 -161 -598 -313 -228 -130 -227 -130 -575 -421 -42 -34
-113 -105 -158 -157 -45 -52 -105 -119 -133 -149 -76 -81 -167 -206 -174 -240
-4 -16 -10 -32 -14 -35 -15 -9 -3 40 19 77 12 21 19 42 15 48 -3 5 0 10 7 11
7 0 31 23 53 50 22 27 47 56 55 66 32 36 5 264 -44 362 -13 25 -26 61 -29 79
-4 19 -22 59 -41 90 -18 32 -44 83 -56 114 l-23 57 33 130 33 130 -36 41 c-49
53 -48 79 3 110 46 29 50 49 16 84 -17 19 -34 26 -60 26 -20 0 -36 4 -36 10 0
5 -7 7 -16 3 -10 -4 -31 10 -60 41 -25 25 -47 46 -49 46 -1 0 -10 -17 -18 -37
-8 -21 -24 -47 -36 -57 -27 -25 -26 -52 4 -101 28 -46 31 -81 10 -121 -8 -16
-14 -48 -13 -72 3 -80 -65 -111 -133 -60 -19 14 -50 28 -70 32 -24 4 -43 17
-58 37 -13 17 -44 40 -70 52 -44 20 -221 60 -229 52 -2 -2 -22 12 -43 32 -63
59 -80 166 -34 221 l25 30 -30 23 c-17 13 -35 39 -40 58 -8 30 -6 36 20 63 20
20 38 28 55 26 15 -2 29 4 37 15 7 10 25 19 38 21 14 2 41 6 61 10 48 10 73
-4 101 -57 41 -77 49 -117 32 -153 -20 -41 -60 -58 -124 -52 -28 3 -50 3 -50
1 0 -2 15 -17 33 -33 28 -25 37 -28 71 -23 23 4 48 16 60 29 16 18 33 24 66
25 56 2 82 8 75 19 -2 4 3 18 13 31 10 13 17 29 17 34 -4 33 -18 75 -26 75 -5
0 -9 6 -9 14 0 8 -14 25 -31 38 -17 14 -37 44 -45 68 -15 44 -28 61 -136 186
-32 36 -58 70 -58 74 0 5 -3 15 -6 23 -4 12 6 17 44 22 56 7 92 -6 150 -56 18
-16 41 -29 52 -29 10 0 22 -5 25 -10 4 -6 24 -18 46 -27 25 -9 67 -45 112 -93
72 -78 73 -79 119 -77 39 2 52 -3 85 -31 21 -18 52 -39 70 -47 39 -18 78 -56
98 -95 9 -17 23 -30 33 -30 21 0 85 63 112 111 90 157 144 297 166 429 16 98
13 114 -32 197 -31 55 -34 69 -33 135 2 53 -4 89 -19 131 -20 55 -20 61 -6 97
14 34 14 41 0 68 -9 17 -19 62 -22 100 -6 65 -5 70 17 86 30 20 63 20 94 0
l25 -16 0 59 c0 50 7 73 42 142 46 94 79 121 144 121 48 0 67 -17 84 -76 9
-30 10 -54 2 -90 -10 -44 -9 -51 9 -69 19 -19 19 -19 19 2 0 12 4 23 10 25 5
2 11 29 14 60 3 32 14 78 25 103 18 40 23 45 53 45 47 0 66 -14 49 -34 -12
-14 -10 -16 10 -16 40 0 96 45 101 80 5 35 -15 65 -38 56 -7 -3 -27 -1 -43 5
-30 11 -41 32 -41 83 l0 28 73 -3 72 -4 -3 30 c-11 112 -8 136 22 162 50 43
119 9 148 -72 16 -45 81 -125 119 -145 9 -5 25 -6 37 -3 l21 5 -24 47 c-14 25
-25 58 -25 73 0 16 -5 28 -11 28 -19 0 -47 39 -83 114 -26 54 -35 90 -40 153
-7 74 -5 84 13 102 12 12 34 21 51 21 23 0 35 -8 55 -38 14 -21 27 -51 29 -67
2 -17 11 -56 20 -88 14 -44 24 -61 46 -72 16 -8 48 -33 72 -54 40 -38 42 -42
42 -96 -1 -52 1 -56 25 -62 14 -4 34 -6 43 -4 29 4 56 -54 64 -138 3 -42 10
-78 13 -81 4 -3 14 -21 23 -40 9 -19 25 -44 36 -56 38 -40 72 -104 72 -134 0
-16 5 -30 10 -30 6 0 10 -9 10 -19 0 -11 5 -23 11 -27 8 -5 10 1 7 20 -3 14
-1 29 3 32 11 6 12 58 2 68 -4 4 -9 25 -10 46 -1 22 -10 57 -19 77 -28 64 -64
187 -64 216 0 31 27 87 48 100 6 4 12 27 12 51 0 23 3 45 6 49 5 5 57 -13 90
-32 17 -9 145 -106 174 -132 14 -12 41 -28 60 -36 19 -8 48 -27 64 -41 l28
-27 -7 48 c-8 59 -40 136 -57 141 -7 3 -30 7 -50 11 -22 3 -58 23 -90 49 -29
23 -66 46 -82 50 -33 8 -86 60 -86 84 0 8 11 30 25 47 13 18 26 38 27 45 4 16
-169 44 -186 31 -6 -5 -33 -21 -61 -36 -27 -16 -53 -33 -57 -39 -14 -21 -37
28 -38 77 0 55 27 92 61 82 15 -5 29 3 54 31 l35 38 25 -24 c35 -33 62 -17
105 64 31 60 33 68 18 82 -25 25 -120 -7 -170 -58 -21 -21 -43 -36 -48 -33 -5
3 -25 2 -44 -3 l-34 -10 -8 82 c-9 93 -9 167 1 249 8 60 25 79 25 26 0 -16 4
-28 9 -25 14 9 9 76 -5 76 -14 0 -31 73 -33 145 -2 34 -9 59 -25 80 -13 16
-35 53 -49 81 -51 100 -72 93 -70 -26 2 -86 -11 -145 -32 -154 -40 -15 -2
-125 70 -201 50 -54 55 -78 23 -112 -29 -31 -39 -29 -81 17 -30 34 -41 40 -76
40 -33 0 -46 6 -68 30 -18 21 -36 30 -56 30 -69 0 -147 63 -147 119 0 11 -11
41 -25 67 -14 26 -25 60 -25 75 0 24 -4 29 -23 29 -42 0 -64 37 -70 119 -4 42
-11 78 -19 82 -15 9 -48 -7 -48 -24 0 -19 -38 -47 -63 -47 -27 0 -47 -15 -70
-52 -17 -28 -46 -35 -81 -22 -29 11 -20 85 17 140 54 81 72 144 48 169 -5 6
-14 26 -20 45 -10 31 -8 46 14 109 13 40 31 116 39 169 8 54 24 135 36 181 12
46 20 100 18 120 -2 20 2 36 7 35 40 -2 113 -61 140 -115 22 -41 45 -152 45
-216 0 -33 8 -67 20 -92 30 -57 36 -105 16 -136 -9 -14 -25 -25 -36 -25 -31 0
-67 -20 -77 -44 -19 -44 2 -66 67 -71 42 -4 87 -33 102 -65 7 -16 16 -30 20
-30 4 0 8 -10 10 -22 2 -14 14 -26 30 -32 31 -11 48 -2 30 16 -16 16 -15 48 1
48 15 0 51 37 60 61 3 11 -5 29 -23 48 -38 44 -89 229 -72 266 9 18 19 25 41
25 49 0 81 -46 81 -116 0 -47 13 -70 70 -125 26 -25 60 -67 75 -95 36 -62 34
-59 45 -48 7 7 7 41 1 100 -9 80 -8 93 11 132 22 46 18 92 -7 92 -8 0 -15 5
-15 10 0 6 -8 10 -18 10 -10 0 -30 12 -43 28 -34 36 -119 184 -119 207 0 9
-23 38 -51 64 -58 52 -80 89 -73 119 8 27 40 34 79 18 23 -10 38 -28 58 -69
23 -49 32 -58 67 -68 22 -7 43 -10 45 -7 11 10 -16 142 -34 167 -10 14 -23 60
-30 101 -8 48 -19 82 -32 96 -20 22 -59 92 -59 107 0 13 62 4 96 -14z m2559
11 c-3 -5 -14 -10 -23 -10 -15 0 -15 2 -2 10 20 13 33 13 25 0z m-607 -38 c6
-18 -15 -14 -22 4 -4 10 -1 14 6 12 6 -2 14 -10 16 -16z m69 -7 c-10 -21 -37
-36 -37 -19 0 15 22 44 34 44 11 0 12 -5 3 -25z m6248 -39 c0 -16 -7 -33 -17
-39 -22 -14 -92 3 -96 24 -3 19 53 49 88 46 20 -2 25 -7 25 -31z m-9495 -86
c0 -21 -16 -26 -39 -11 -18 11 -5 31 20 31 12 0 19 -7 19 -20z m520 -24 c14
-44 5 -77 -29 -110 -23 -22 -30 -24 -44 -14 -15 11 -16 22 -9 76 5 36 15 68
23 73 28 18 47 9 59 -25z m-596 -40 c30 -64 18 -105 -44 -136 -22 -11 -46 -20
-54 -20 -12 0 -14 -10 -9 -48 6 -54 -8 -75 -46 -65 -21 5 -23 10 -18 45 3 22
13 45 22 52 15 11 16 18 6 48 -20 61 10 141 62 163 39 16 59 7 81 -39z m165
-59 c6 -8 14 -28 17 -45 11 -54 -48 -124 -100 -119 -24 1 -31 8 -38 32 -11 43
8 96 45 123 36 25 60 28 76 9z m-1649 -107 c0 -5 -2 -10 -4 -10 -3 0 -8 5 -11
10 -3 6 -1 10 4 10 6 0 11 -4 11 -10z m1970 -74 c0 -19 -9 -56 -20 -82 -11
-26 -22 -54 -23 -63 -2 -9 -9 -26 -16 -39 -10 -18 -15 -21 -26 -12 -10 9 -12
32 -8 98 5 90 13 108 48 122 37 16 45 11 45 -24z m3730 6 c0 -9 9 -28 20 -42
36 -46 18 -67 -37 -43 -35 14 -45 47 -21 71 7 7 8 12 4 12 -5 0 -3 7 4 15 14
17 30 11 30 -13z m364 7 c36 -29 33 -44 -17 -74 -44 -25 -87 -33 -87 -15 0 10
36 77 52 98 14 16 21 15 52 -9z m1676 -39 c0 -5 -7 -10 -16 -10 -8 0 -12 5 -9
10 3 6 10 10 16 10 5 0 9 -4 9 -10z m-35 -20 c3 -5 -9 -17 -27 -26 l-33 -17
24 27 c28 29 28 29 36 16z m-3505 -79 c-8 -16 -8 -21 2 -21 15 0 51 -54 42
-63 -9 -9 -64 14 -64 26 0 8 -4 7 -9 -2 -5 -8 -16 -11 -30 -6 -23 7 -20 14 33
66 33 32 43 32 26 0z m2988 -91 c23 -16 51 -48 62 -70 23 -44 28 -46 85 -25
65 23 91 19 160 -29 66 -45 157 -71 204 -59 12 3 49 0 82 -7 49 -11 59 -16 54
-30 -5 -16 -2 -17 27 -10 18 4 45 12 60 18 15 6 30 8 32 3 11 -16 82 -6 110
17 16 12 32 22 37 22 22 0 39 -15 39 -35 0 -19 5 -22 32 -20 22 2 39 -5 55
-21 13 -13 29 -24 36 -24 7 0 21 -9 30 -21 15 -17 16 -23 5 -37 -11 -14 -10
-15 5 -9 10 4 25 7 33 7 8 0 14 5 14 10 0 12 73 81 85 80 3 0 4 1 3 3 -6 6 91
91 120 103 17 8 32 18 32 23 0 5 13 14 30 19 37 13 42 -1 40 -101 -1 -40 -1
-74 0 -77 1 -3 3 -14 5 -24 4 -19 22 -36 40 -36 7 0 8 -24 2 -72 -19 -164 -12
-309 14 -293 3 3 4 -7 1 -20 -3 -16 0 -25 9 -25 7 0 9 -3 6 -6 -4 -4 2 -19 13
-34 11 -16 20 -31 20 -34 0 -9 39 -46 49 -46 5 0 8 -28 7 -62 -2 -55 1 -65 27
-95 16 -18 33 -31 37 -28 20 12 20 -21 1 -103 -11 -48 -23 -112 -26 -142 -3
-30 -11 -74 -17 -97 -8 -34 -7 -58 7 -118 16 -67 21 -76 39 -73 11 2 22 11 24
21 4 21 37 57 52 57 6 0 10 6 10 14 0 8 19 23 42 35 48 24 86 84 67 108 -9 10
-8 13 1 13 9 0 11 10 6 31 -5 24 -1 35 21 55 16 15 23 28 17 32 -18 12 -12 52
8 52 10 0 18 6 18 13 0 6 6 3 12 -8 6 -11 12 -21 14 -23 3 -4 54 28 75 48 30
28 46 73 41 118 -4 40 1 47 29 44 4 -1 14 16 24 38 12 26 29 45 53 56 44 20
60 13 87 -43 11 -22 37 -59 57 -81 21 -23 42 -60 48 -84 6 -24 28 -81 49 -128
21 -47 44 -102 50 -122 21 -64 36 -67 84 -15 23 26 57 52 76 58 31 11 33 14
28 48 -3 20 -9 52 -14 71 -7 25 -6 46 5 75 8 22 18 76 23 120 5 44 11 103 15
131 6 50 -6 86 -48 145 -9 14 -4 32 26 94 20 42 43 99 49 126 13 53 24 60 52
29 13 -15 16 -27 10 -52 -4 -18 -8 -62 -8 -98 -1 -88 30 -381 48 -455 8 -33
15 -76 15 -95 0 -44 10 -60 51 -79 18 -9 46 -35 63 -59 17 -24 49 -53 71 -65
22 -13 45 -34 52 -47 12 -23 13 -19 13 38 0 53 4 67 25 87 24 25 68 33 91 17
17 -11 52 -97 59 -144 4 -26 2 -55 -6 -73 -7 -17 -13 -83 -15 -152 -2 -94 -7
-136 -24 -187 l-23 -66 21 -48 c23 -53 37 -165 27 -211 -5 -23 -19 -37 -61
-61 -30 -16 -54 -36 -54 -43 0 -8 11 -24 25 -37 23 -22 28 -23 60 -11 26 9 39
9 56 0 19 -10 25 -7 46 20 14 18 47 43 73 56 27 14 51 29 55 35 4 6 32 23 64
39 73 37 90 56 59 65 -13 3 -33 6 -44 6 -40 0 -44 48 -13 136 11 32 24 86 28
119 5 33 12 68 16 78 5 13 2 17 -14 17 -11 0 -43 19 -70 43 -27 23 -61 50 -75
60 -71 49 -66 166 14 287 5 8 20 42 31 74 23 62 57 106 83 106 8 0 28 -12 45
-26 64 -53 79 3 37 136 -13 41 -26 114 -30 161 -5 76 -4 88 13 103 18 17 20
16 37 -13 9 -16 27 -35 39 -41 13 -7 32 -29 44 -50 11 -20 28 -43 37 -51 28
-23 32 -52 18 -124 -21 -111 -21 -112 49 -177 34 -32 68 -58 75 -58 7 0 12 13
12 34 0 39 46 96 78 96 33 0 79 63 102 140 14 47 26 70 36 70 31 0 41 -25 46
-125 5 -77 11 -109 27 -136 36 -61 65 -271 45 -324 -12 -30 -57 -45 -97 -33
-41 13 -81 0 -129 -40 -35 -30 -99 -163 -127 -266 -11 -41 -32 -100 -46 -131
-14 -32 -25 -63 -25 -71 0 -7 -26 -33 -58 -58 -39 -30 -64 -58 -77 -88 -10
-23 -26 -54 -35 -68 -30 -45 -59 -143 -75 -250 -8 -58 -18 -112 -20 -120 -4
-14 -18 -209 -17 -240 2 -48 -11 -72 -46 -87 -21 -8 -50 -25 -67 -37 -16 -12
-50 -32 -75 -44 -25 -12 -70 -38 -100 -58 -75 -49 -106 -53 -166 -19 -26 15
-54 34 -61 43 -12 15 -15 14 -38 -12 -15 -15 -27 -27 -29 -25 -2 2 -11 18 -20
36 -9 19 -25 33 -38 35 -19 2 -23 9 -24 38 0 52 -18 75 -69 95 -46 17 -47 17
-70 -5 -20 -19 -31 -22 -65 -16 -39 6 -40 5 -40 -22 0 -52 -32 -64 -89 -36
-29 14 -94 15 -108 1 -9 -10 21 -55 47 -70 16 -10 38 -32 49 -51 17 -26 30
-35 62 -40 83 -13 144 -58 155 -114 6 -28 3 -34 -25 -49 -40 -23 -39 -40 2
-48 17 -4 49 -18 69 -31 21 -13 48 -24 60 -24 13 0 42 -9 65 -19 32 -15 50
-17 79 -11 21 5 41 7 44 5 4 -2 13 7 20 20 16 30 22 31 45 5 12 -13 31 -20 57
-20 21 0 38 -2 38 -4 0 -2 -7 -17 -15 -32 -18 -34 -19 -56 -4 -71 6 -6 9 -19
7 -29 -2 -15 -11 -18 -43 -16 -34 2 -46 -3 -78 -33 -51 -47 -61 -45 -53 8 9
60 -6 97 -39 97 -31 0 -93 -25 -117 -47 -23 -21 -47 -10 -60 28 -8 23 -23 36
-64 55 -61 28 -102 30 -159 8 -42 -15 -42 -15 -121 24 -43 21 -94 45 -111 52
-25 9 -33 18 -33 38 0 24 -1 24 -19 8 -17 -16 -24 -15 -112 18 -238 86 -228
78 -184 151 54 87 27 97 -236 89 -133 -5 -188 -3 -193 5 -13 21 -44 11 -87
-29 -34 -31 -48 -38 -68 -34 -192 42 -477 126 -759 221 -155 53 -197 73 -153
73 11 0 22 4 25 8 5 8 43 18 186 47 106 22 172 34 223 41 70 9 61 32 -16 41
-57 5 -258 -22 -335 -47 -74 -23 -135 -26 -155 -6 -10 10 -13 35 -10 98 3 48
1 78 -5 71 -6 -10 -12 -10 -28 3 -12 10 -15 17 -7 20 40 17 50 40 57 124 12
159 12 154 -6 158 -26 5 -74 -44 -93 -95 -14 -36 -15 -52 -7 -82 20 -66 23
-91 11 -91 -16 0 2 -129 21 -155 5 -5 17 -34 28 -62 24 -64 11 -71 -42 -20
-34 31 -171 89 -279 117 -59 16 -103 62 -156 167 -92 184 -155 233 -295 233
-45 0 -92 -3 -105 -7 -21 -5 -23 -10 -18 -52 6 -54 -9 -139 -29 -162 -17 -19
-19 -38 -2 -21 25 25 39 14 32 -25 -7 -41 -48 -113 -64 -113 -6 0 -9 -3 -8 -8
5 -12 -73 -102 -88 -102 -8 0 -14 -4 -14 -10 0 -5 -20 -15 -45 -21 -26 -7 -54
-22 -64 -35 -21 -26 -60 -44 -97 -44 -14 0 -27 -7 -30 -15 -9 -23 -26 -18 -19
5 5 16 2 20 -14 20 -28 0 -27 16 2 24 16 4 18 8 9 14 -22 15 13 69 51 77 18 4
39 13 47 20 8 7 22 15 30 18 9 3 4 6 -12 6 -15 1 -29 -3 -33 -9 -3 -6 -15 -5
-31 2 -14 7 -20 14 -14 18 14 9 2 40 -16 40 -23 0 -16 16 12 28 16 8 24 19 22
31 -2 10 4 26 12 36 9 11 10 16 3 11 -7 -4 -13 -3 -13 3 0 6 -7 8 -17 4 -17
-7 -17 -8 3 57 4 12 2 20 -5 20 -5 0 -8 6 -5 14 4 10 -2 16 -18 18 -20 3 -23
9 -24 46 0 23 4 42 10 42 16 0 57 68 46 75 -6 3 -10 19 -10 36 0 16 -6 29 -12
30 -9 0 -9 2 1 6 11 5 11 7 0 14 -12 8 -11 11 1 19 8 5 11 10 5 10 -5 0 -10
11 -10 25 0 19 4 23 18 19 9 -3 17 -1 17 5 0 6 8 8 18 4 16 -6 16 -5 -1 14 -9
11 -14 23 -10 26 3 4 -2 7 -12 7 -15 0 -16 2 -4 16 11 14 10 19 -6 33 -11 9
-21 26 -22 39 -3 26 -3 26 33 7 27 -14 50 -11 27 3 -16 10 -7 84 11 94 9 5 16
17 16 26 0 9 16 43 35 75 19 32 35 69 35 81 0 13 7 26 15 30 8 3 15 14 15 25
0 11 6 24 13 28 6 4 19 22 27 38 8 17 17 32 20 35 11 11 40 69 40 79 0 6 8 19
19 30 10 10 23 27 29 37 16 29 24 11 23 -57 0 -42 3 -58 9 -49 14 23 23 5 25
-50 1 -27 4 -53 8 -56 3 -3 1 -18 -4 -32 -6 -15 -6 -29 -1 -34 13 -13 30 63
37 167 6 88 28 207 46 253 5 13 9 30 9 39 0 32 31 53 80 53 50 0 72 13 62 39
-12 34 -55 81 -74 81 -37 0 -87 29 -103 60 -14 26 -14 36 -3 68 7 20 18 40 25
45 7 4 10 20 6 42 -4 26 -2 35 9 35 31 0 67 26 70 50 3 22 7 24 43 22 34 -3
46 2 79 32 21 20 42 36 46 36 12 0 40 80 42 120 3 48 -10 107 -33 153 -21 39
-22 88 -4 94 14 4 75 -202 75 -254 0 -23 -4 -53 -10 -68 -16 -41 -69 -102
-101 -116 -39 -15 -59 -45 -59 -86 0 -26 -4 -33 -19 -33 -10 0 -21 7 -25 15
-11 30 -36 16 -42 -25 -5 -31 -11 -40 -26 -40 -16 0 -18 -4 -12 -22 4 -13 8
-32 9 -42 1 -18 48 -66 64 -66 5 0 29 16 54 35 51 39 65 71 47 104 -9 18 -8
21 11 21 25 0 91 68 118 120 28 54 86 205 116 303 33 107 41 186 26 257 -20
95 -35 115 -107 146 -63 26 -65 27 -85 8 -17 -15 -22 -16 -29 -4 -13 22 52 80
89 80 15 0 46 -13 69 -30z m-5971 -66 c-6 -55 -21 -74 -59 -74 -55 0 -50 65 9
104 20 14 41 22 46 19 5 -3 7 -25 4 -49z m10314 -34 c29 -16 24 -46 -11 -59
-36 -12 -54 -49 -75 -154 -45 -230 -52 -247 -96 -247 -41 0 -50 26 -47 139 1
58 -2 125 -6 148 -9 46 -1 97 14 88 6 -3 10 -1 10 4 0 6 5 11 11 11 6 0 27 14
46 30 18 17 44 30 56 30 12 0 29 5 37 10 19 13 37 12 61 0z m86 -6 c-3 -3 -12
-4 -19 -1 -8 3 -5 6 6 6 11 1 17 -2 13 -5z m-4780 -124 c-26 -75 -46 -89 -45
-33 0 21 -1 43 -2 48 -5 23 2 35 28 48 15 7 30 11 35 7 4 -3 -3 -35 -16 -70z
m-5725 33 c25 -23 24 -81 -4 -110 -27 -29 -43 -29 -73 2 -30 29 -31 50 -5 93
22 36 53 42 82 15z m-621 -72 c35 -35 35 -39 6 -82 -19 -29 -29 -34 -62 -34
-34 0 -42 4 -53 28 -17 34 -9 69 20 97 30 28 54 25 89 -9z m10412 -28 c8 -16
14 -46 15 -68 1 -22 5 -52 8 -67 13 -65 -34 -92 -79 -45 -12 12 -34 30 -49 40
-33 21 -34 31 -8 90 34 76 88 100 113 50z m-915 -34 c2 -15 -5 -32 -16 -42
-18 -16 -19 -16 -29 5 -14 31 1 71 24 66 11 -2 19 -14 21 -29z m-893 -73 c11
-8 16 -19 12 -30 -7 -17 -93 -60 -140 -70 -15 -3 -38 -8 -52 -11 -14 -3 -31
-18 -40 -35 -9 -17 -20 -28 -25 -25 -4 3 -11 -1 -14 -7 -6 -13 -4 -2 10 90 7
51 31 65 124 76 30 4 62 11 70 16 21 13 33 12 55 -4z m2044 -9 c19 -24 43
-101 42 -135 -1 -19 -18 -66 -37 -105 -20 -40 -41 -83 -48 -97 -6 -14 -24 -29
-39 -34 -30 -11 -54 5 -89 61 -36 60 -39 97 -12 185 13 44 29 87 36 96 31 37
125 55 147 29z m-4339 -78 c17 -51 19 -134 3 -150 -7 -7 -15 -11 -17 -8 -7 7
-12 199 -5 199 3 0 12 -18 19 -41z m-3263 7 c21 -24 21 -24 2 -42 -17 -15 -21
-16 -34 -3 -13 14 -10 69 4 69 4 0 17 -11 28 -24z m-4105 -84 c35 -33 34 -51
-7 -78 -30 -20 -47 -14 -77 27 -22 29 -15 57 16 69 31 13 33 12 68 -18z m4668
18 c0 -5 -4 -10 -10 -10 -5 0 -10 5 -10 10 0 6 5 10 10 10 6 0 10 -4 10 -10z
m35 -40 c3 -5 1 -10 -4 -10 -6 0 -11 -5 -11 -11 0 -12 -25 -39 -35 -39 -4 0 0
11 9 25 18 28 21 39 6 30 -5 -3 -10 -1 -10 4 0 14 37 14 45 1z m75 -19 c0 -14
-48 -42 -55 -31 -3 5 7 16 22 24 34 18 33 18 33 7z m-112 -63 c-3 -7 -15 -14
-29 -16 -24 -4 -24 -3 -4 12 24 19 38 20 33 4z m5702 -8 c-8 -5 -17 -7 -19 -4
-3 3 1 9 9 14 8 5 17 7 19 4 3 -3 -1 -9 -9 -14z m-4184 -49 c1 -15 14 -46 29
-69 28 -42 28 -82 -1 -82 -19 0 -18 -14 2 -31 14 -11 13 -15 -8 -31 -19 -14
-20 -18 -6 -18 21 0 68 -46 68 -66 0 -8 -7 -17 -15 -20 -16 -6 -139 47 -194
83 -35 24 -35 23 16 39 7 2 10 10 7 19 -4 10 0 15 10 15 9 0 16 -8 16 -21 0
-11 5 -17 10 -14 15 9 12 17 -13 46 -12 15 -36 29 -53 33 -25 6 -33 14 -38 36
-8 43 -1 53 61 86 70 37 108 35 109 -5z m-1531 19 c3 -5 -1 -10 -9 -10 -9 0
-16 5 -16 10 0 6 4 10 9 10 6 0 13 -4 16 -10z m-2284 -420 c32 -43 34 -82 5
-113 -49 -53 -139 -23 -151 50 -4 24 1 39 21 63 23 27 32 31 67 28 29 -2 45
-10 58 -28z m-911 -14 c0 -8 3 -21 6 -30 3 -9 1 -16 -5 -16 -14 0 -34 38 -26
50 9 15 25 12 25 -4z m1526 -56 c17 0 19 -31 2 -48 -22 -22 -38 -13 -38 21 0
34 12 57 18 38 2 -6 10 -11 18 -11z m2799 10 c-3 -5 -10 -10 -16 -10 -5 0 -9
5 -9 10 0 6 7 10 16 10 8 0 12 -4 9 -10z m-4449 -14 c8 -8 14 -17 14 -21 0
-11 28 -36 37 -33 4 2 9 -1 10 -6 1 -5 5 -12 11 -15 19 -13 22 -59 4 -80 -16
-20 -19 -20 -49 -5 -19 9 -34 25 -34 35 -2 34 -4 38 -16 51 -7 6 -13 20 -13
30 0 10 -7 21 -16 25 -12 4 -11 8 8 18 30 17 27 17 44 1z m164 -21 c0 -8 -7
-15 -15 -15 -8 0 -15 7 -15 15 0 8 7 15 15 15 8 0 15 -7 15 -15z m952 -242
c44 -39 6 -133 -53 -133 -55 0 -91 89 -52 132 20 23 80 24 105 1z m3698 -73
c0 -5 -4 -10 -10 -10 -5 0 -10 5 -10 10 0 6 5 10 10 10 6 0 10 -4 10 -10z
m-6836 -175 c-4 -8 -9 -15 -13 -16 -3 0 -18 -3 -32 -5 -40 -7 -56 19 -29 46
19 19 22 19 50 5 19 -10 27 -20 24 -30z m3468 8 c52 -54 57 -109 15 -145 -25
-23 -33 -22 -67 2 -31 22 -56 95 -45 130 6 19 34 38 61 39 5 1 22 -11 36 -26z
m-2298 -68 c33 -29 37 -37 26 -50 -17 -21 -33 -19 -57 8 -24 26 -35 55 -27 68
8 14 16 11 58 -26z m11587 -179 c9 -18 8 -31 -3 -52 -12 -26 -19 -29 -71 -32
-51 -2 -57 -1 -57 17 0 52 37 87 93 90 20 1 30 -5 38 -23z m-10542 -61 c39
-19 71 -39 71 -44 0 -25 -25 -68 -68 -119 -26 -31 -54 -64 -62 -74 -8 -10 -29
-23 -48 -29 -39 -13 -62 0 -62 36 0 23 45 152 60 170 4 6 11 29 15 53 4 23 10
42 15 42 4 0 40 -16 79 -35z m398 -231 c4 -112 -7 -134 -64 -134 -45 0 -83 37
-83 82 0 18 -3 49 -6 69 -8 47 26 89 82 99 59 10 67 -3 71 -116z m353 -252
c25 -32 25 -53 -1 -86 -52 -66 -149 10 -108 85 22 43 76 43 109 1z m-306 -43
c38 -30 36 -79 -6 -114 -26 -22 -37 -25 -62 -19 -17 4 -48 8 -68 8 -21 0 -38
5 -38 11 0 5 -5 3 -10 -5 -7 -10 -10 -11 -10 -2 0 7 11 17 24 22 15 5 29 22
36 44 13 41 53 76 85 76 12 0 34 -9 49 -21z m-984 -121 c0 -10 -4 -18 -9 -18
-5 0 -11 8 -13 18 -3 11 0 19 8 19 8 0 14 -9 14 -19z m1332 -86 c4 -37 -24
-109 -72 -183 -22 -34 -40 -69 -40 -77 0 -7 14 -27 30 -42 36 -33 37 -51 8
-127 -12 -32 -21 -74 -19 -93 2 -49 -36 -88 -69 -70 -12 6 -26 25 -32 40 -5
16 -18 32 -29 35 -11 4 -32 25 -47 48 -14 23 -38 56 -52 73 -32 38 -57 141
-42 171 8 15 6 26 -9 49 -10 16 -19 37 -19 47 0 29 37 57 76 57 23 0 50 10 77
29 50 34 123 71 157 81 40 11 78 -7 82 -38z m9412 -22 c29 -11 34 -35 10 -44
-21 -8 -44 11 -44 35 0 22 0 22 34 9z m-141 -23 c10 -7 19 -25 20 -42 2 -24
-3 -31 -27 -39 -25 -10 -31 -7 -57 22 -16 17 -33 32 -39 32 -11 0 -12 3 -5 22
7 17 86 21 108 5z m-9776 -32 c57 -38 6 -135 -71 -135 -70 0 -110 74 -68 127
29 36 91 39 139 8z m-280 -3 c12 -7 34 -24 49 -37 26 -24 26 -26 9 -45 -25
-27 -165 -26 -195 2 -27 25 -25 52 6 77 28 22 93 24 131 3z m5293 -112 c0 -5
-2 -10 -4 -10 -3 0 -8 5 -11 10 -3 6 -1 10 4 10 6 0 11 -4 11 -10z m-5465 -75
c44 -43 45 -73 4 -137 -18 -28 -29 -55 -25 -64 4 -10 -3 -25 -19 -40 -48 -45
-97 4 -60 60 16 24 16 29 1 66 -24 61 -21 105 10 129 36 29 49 27 89 -14z
m10198 -26 c25 -14 144 -14 161 0 7 6 18 4 30 -5 15 -11 19 -25 17 -66 -1 -45
-6 -58 -34 -84 -17 -18 -72 -52 -121 -78 -122 -63 -129 -57 -142 109 -5 59 -2
75 15 103 22 34 39 39 74 21z m-205 -55 c33 -9 27 -31 -25 -85 -54 -57 -102
-72 -133 -44 -14 13 -28 16 -55 11 -37 -7 -50 9 -17 21 9 4 37 20 60 36 36 25
123 65 142 66 3 1 15 -2 28 -5z m-334 -216 c-31 -32 -80 -61 -94 -56 -12 4 29
48 75 81 48 33 59 18 19 -25z m1216 17 c75 -39 93 -151 29 -186 -28 -15 -51 8
-89 88 -30 62 -36 93 -23 106 11 12 53 8 83 -8z m-10884 -71 c38 -39 44 -77
17 -106 -9 -10 -26 -18 -38 -18 -12 0 -30 -9 -40 -20 -33 -37 -73 -22 -105 38
-17 33 -6 64 37 106 50 48 84 48 129 0z m9795 -331 c37 -22 44 -41 23 -64 -35
-39 -144 -15 -144 31 0 47 66 65 121 33z m46 -145 c6 -7 16 -30 22 -50 13 -40
46 -58 107 -58 42 0 64 -23 64 -66 0 -60 -57 -93 -105 -60 -11 7 -37 19 -58
25 -24 8 -43 23 -52 42 -9 16 -15 30 -14 31 1 2 -3 20 -10 41 -17 50 -7 107
18 107 10 0 23 -6 28 -12z m463 -78 c31 0 35 -42 8 -77 -14 -17 -58 13 -58 39
0 26 22 67 28 50 2 -6 12 -12 22 -12z m236 -35 c30 -47 -10 -135 -61 -135 -34
0 -65 36 -65 76 0 72 90 114 126 59z m-5441 -51 c-14 -20 -25 -40 -25 -44 0
-12 -26 -19 -40 -10 -23 14 42 86 82 89 4 1 -4 -15 -17 -35z m-5611 -60 c23
-9 20 -33 -8 -59 -13 -12 -25 -28 -28 -36 -4 -12 -7 -12 -21 0 -17 14 -22 57
-9 77 13 19 42 27 66 18z m-1579 -203 c-2 -9 -4 -24 -4 -33 -1 -11 -9 -18 -22
-18 -11 0 -17 -4 -14 -10 3 -5 0 -10 -8 -10 -8 0 -18 7 -21 16 -3 8 -2 13 3
10 11 -7 23 22 15 35 -3 6 2 21 11 35 16 24 17 25 30 8 7 -10 11 -25 10 -33z
m2013 1 c11 2 18 -5 20 -20 3 -21 1 -23 -18 -17 -15 5 -20 3 -16 -3 3 -6 2
-13 -4 -17 -5 -3 -10 1 -10 9 0 9 -5 16 -11 16 -5 0 -7 5 -4 10 4 6 1 18 -7
27 -12 15 -11 15 10 4 12 -6 30 -11 40 -9z m3533 -3 c9 -18 6 -26 -28 -61 -31
-31 -43 -38 -63 -33 -36 9 -36 10 -5 55 43 63 76 76 96 39z m79 -124 c11 -13
9 -20 -10 -40 -23 -25 -24 -25 -42 -5 -23 24 -23 36 0 49 24 15 38 13 52 -4z
m-4478 -112 c21 -19 24 -51 4 -59 -32 -12 -78 38 -61 66 9 15 36 12 57 -7z
m264 -67 c23 -23 18 -81 -8 -99 -27 -17 -51 -87 -42 -122 8 -33 -19 -43 -60
-22 -17 8 -46 15 -65 16 -19 0 -38 6 -42 13 -11 17 -11 58 -1 58 5 0 15 11 22
25 7 13 21 27 31 30 10 4 30 28 45 55 15 27 34 51 43 53 34 9 63 6 77 -7z
m10587 -341 c2 -44 9 -90 16 -103 6 -12 8 -22 3 -22 -11 0 -69 129 -77 172 -6
29 -3 38 12 46 30 18 42 -6 46 -93z m-11353 -369 c0 -3 -4 -8 -10 -11 -5 -3
-10 -1 -10 4 0 6 5 11 10 11 6 0 10 -2 10 -4z m10 -28 c0 -5 9 -22 19 -37 19
-27 19 -27 -1 -28 -12 -1 -25 -7 -29 -14 -4 -7 -14 -9 -23 -6 -9 4 -16 2 -16
-3 0 -6 -9 -10 -20 -10 -22 0 -27 15 -7 23 6 3 2 6 -10 6 -25 1 -26 4 -17 39
4 15 14 22 30 22 12 0 25 4 28 8 7 12 46 12 46 0z m90 -38 c0 -5 -4 -10 -10
-10 -5 0 -10 5 -10 10 0 6 5 10 10 10 6 0 10 -4 10 -10z m5353 -13 c15 -12 27
-28 27 -35 0 -17 -25 -15 -40 3 -7 8 -18 15 -26 15 -7 0 -18 9 -24 20 -9 17
-8 20 13 20 13 0 36 -10 50 -23z m-5883 -27 c0 -5 -6 -10 -14 -10 -8 0 -18 5
-21 10 -3 6 3 10 14 10 12 0 21 -4 21 -10z m5910 -131 c0 -27 -30 -44 -76 -42
-49 2 -84 17 -84 38 0 15 34 21 112 20 37 0 48 -4 48 -16z m-5704 -44 c33 -31
35 -80 3 -105 -15 -12 -18 -26 -16 -76 2 -51 9 -70 46 -129 35 -57 43 -79 43
-118 0 -64 -18 -104 -52 -115 -62 -22 -120 51 -120 152 0 39 -5 65 -15 76 -13
14 -14 22 -4 44 11 24 10 29 -14 54 -21 22 -27 38 -27 74 0 26 -4 50 -10 53
-20 12 -10 61 18 87 47 45 101 46 148 3z m432 -81 c5 -9 7 -25 4 -36 -4 -18
-5 -18 -18 -1 -16 21 -18 53 -4 53 5 0 13 -7 18 -16z m11252 -6004 c0 -5 -5
-10 -11 -10 -5 0 -7 5 -4 10 3 6 8 10 11 10 2 0 4 -4 4 -10z m-40 -160 c0 -5
-5 -10 -11 -10 -5 0 -7 5 -4 10 3 6 8 10 11 10 2 0 4 -4 4 -10z m20 -46 c0
-14 -3 -14 -15 -4 -8 7 -15 14 -15 16 0 2 7 4 15 4 8 0 15 -7 15 -16z m40
-484 c0 -5 -2 -10 -4 -10 -3 0 -8 5 -11 10 -3 6 -1 10 4 10 6 0 11 -4 11 -10z
m-9537 -655 c-5 -27 -14 -50 -21 -53 -18 -6 -15 81 6 144 l17 53 3 -48 c2 -26
-1 -70 -5 -96z m9535 124 c-2 -6 -8 -10 -13 -10 -5 0 -11 4 -13 10 -2 6 4 11
13 11 9 0 15 -5 13 -11z"/>
<path d="M3528 16158 c-33 -18 -38 -24 -38 -57 0 -26 -9 -47 -31 -74 -22 -26
-27 -40 -20 -49 6 -7 24 -29 41 -49 24 -30 30 -46 30 -85 0 -95 22 -118 68
-70 12 13 44 31 69 40 44 15 103 65 103 87 0 5 7 9 15 9 17 0 21 26 5 32 -6 2
-17 26 -24 53 -11 41 -86 175 -86 153 0 -3 -21 2 -47 12 -47 17 -49 17 -85 -2z"/>
<path d="M3457 15682 c-39 -13 -47 -20 -45 -36 3 -17 16 -24 83 -37 86 -18
103 -16 68 8 -13 9 -23 21 -23 27 0 6 -8 20 -18 32 -16 20 -19 21 -65 6z"/>
<path d="M3652 15518 c2 -6 10 -13 16 -14 7 -1 8 0 2 3 -5 2 -8 9 -4 14 3 5 0
9 -6 9 -7 0 -10 -5 -8 -12z"/>
<path d="M3790 15110 c0 -12 -6 -33 -14 -48 -15 -29 -27 -192 -14 -192 4 0 31
11 60 24 29 13 66 26 81 30 88 21 245 128 234 160 -4 13 -129 13 -223 1 -60
-7 -62 -7 -79 19 -21 31 -45 34 -45 6z"/>
<path d="M6697 14959 c7 -7 15 -10 18 -7 3 3 -2 9 -12 12 -14 6 -15 5 -6 -5z"/>
<path d="M6690 14915 c0 -8 7 -15 16 -15 14 0 14 3 4 15 -7 8 -14 15 -16 15
-2 0 -4 -7 -4 -15z"/>
<path d="M6790 14811 c0 -5 -3 -16 -6 -24 -3 -10 5 -18 25 -25 39 -14 45 -5
20 29 -20 28 -39 38 -39 20z"/>
<path d="M6812 14660 c0 -14 2 -19 5 -12 2 6 2 18 0 25 -3 6 -5 1 -5 -13z"/>
<path d="M7380 14610 c0 -5 5 -10 10 -10 6 0 10 5 10 10 0 6 -4 10 -10 10 -5
0 -10 -4 -10 -10z"/>
<path d="M7990 14406 c0 -8 5 -18 10 -21 6 -3 10 3 10 14 0 12 -4 21 -10 21
-5 0 -10 -6 -10 -14z"/>
<path d="M7050 13565 c0 -14 28 -25 63 -23 25 2 1 23 -35 32 -21 5 -28 3 -28
-9z"/>
<path d="M7790 13000 c0 -5 5 -10 10 -10 6 0 10 5 10 10 0 6 -4 10 -10 10 -5
0 -10 -4 -10 -10z"/>
<path d="M7880 12716 c0 -8 5 -18 10 -21 6 -3 10 3 10 14 0 12 -4 21 -10 21
-5 0 -10 -6 -10 -14z"/>
<path d="M8097 12354 c-10 -14 -17 -32 -15 -42 3 -13 8 -9 22 16 22 42 17 58
-7 26z"/>
<path d="M6680 14690 c0 -5 5 -10 10 -10 6 0 10 5 10 10 0 6 -4 10 -10 10 -5
0 -10 -4 -10 -10z"/>
<path d="M4615 14220 c-3 -5 1 -10 9 -10 9 0 16 5 16 10 0 6 -4 10 -9 10 -6 0
-13 -4 -16 -10z"/>
<path d="M4315 13214 c-15 -15 -13 -20 31 -60 26 -24 55 -44 66 -44 10 0 33
-7 49 -16 17 -8 33 -13 36 -11 11 12 -33 80 -72 112 -46 38 -84 44 -110 19z"/>
<path d="M4564 11799 c-3 -6 3 -20 14 -32 19 -19 22 -19 28 -4 11 29 -26 61
-42 36z"/>
<path d="M3849 11427 c-9 -7 -14 -17 -12 -23 2 -7 -2 -12 -9 -11 -36 1 -68 -4
-68 -11 0 -5 15 -9 33 -9 17 0 42 -4 55 -8 16 -5 22 -3 22 8 0 8 -6 18 -12 20
-8 3 -6 6 5 6 18 1 21 9 9 28 -5 9 -11 9 -23 0z"/>
<path d="M3705 11339 c-12 -19 5 -23 22 -6 16 16 16 17 1 17 -9 0 -20 -5 -23
-11z"/>
<path d="M3995 11220 c-3 -5 1 -10 10 -10 9 0 13 5 10 10 -3 6 -8 10 -10 10
-2 0 -7 -4 -10 -10z"/>
<path d="M4003 11188 c-19 -23 -18 -42 5 -90 32 -64 39 -142 18 -192 -9 -21
-16 -64 -16 -95 0 -37 -7 -69 -20 -94 -11 -20 -20 -50 -20 -66 0 -16 -3 -31
-7 -33 -5 -1 -19 -18 -32 -36 -28 -41 -19 -55 38 -55 31 0 47 6 65 26 28 30
63 41 107 35 24 -4 37 2 66 29 l36 34 -21 22 c-18 19 -21 32 -17 82 3 33 6 76
7 95 2 36 -13 110 -39 193 l-15 48 -42 -6 c-50 -8 -71 10 -90 75 -9 32 -15 39
-23 28z"/>
<path d="M4820 11060 c0 -23 22 -35 46 -26 15 6 15 8 -1 26 -23 26 -45 26 -45
0z"/>
<path d="M4195 10580 c-3 -5 -1 -10 4 -10 6 0 11 5 11 10 0 6 -2 10 -4 10 -3
0 -8 -4 -11 -10z"/>
<path d="M4204 10544 c3 -8 -2 -26 -10 -40 -9 -13 -15 -26 -13 -27 2 -2 16 -8
32 -15 21 -9 27 -9 28 1 0 6 2 23 3 37 4 34 -2 47 -25 53 -15 4 -19 2 -15 -9z"/>
<path d="M2380 10107 c0 -8 11 -19 25 -25 29 -14 33 -2 7 21 -22 20 -32 21
-32 4z"/>
<path d="M3567 10089 c-53 -13 -92 -34 -116 -65 -29 -37 -26 -51 9 -59 41 -9
238 -11 246 -2 4 3 -2 19 -12 34 -10 15 -20 44 -24 63 -4 30 -9 35 -35 37 -17
1 -47 -3 -68 -8z"/>
<path d="M3375 9840 c-8 -13 42 -76 104 -132 53 -48 118 -83 171 -93 46 -9
130 -60 130 -79 0 -2 14 -20 30 -38 17 -18 30 -38 30 -44 0 -7 5 -14 12 -16 6
-2 13 -15 15 -28 4 -28 60 -90 80 -90 8 0 16 7 19 15 4 8 12 15 19 15 7 0 19
7 26 17 8 9 28 24 44 35 17 10 24 18 17 18 -7 0 -11 4 -8 9 9 14 -91 91 -119
91 -8 0 -15 5 -15 11 0 5 -5 7 -11 3 -6 -3 -15 0 -20 7 -6 10 -8 5 -5 -15 4
-22 2 -26 -6 -18 -17 17 -18 40 -2 53 8 6 14 16 14 21 0 16 -28 38 -42 33 -8
-3 -37 14 -65 39 -29 24 -74 54 -100 66 -26 13 -71 41 -100 62 -73 56 -199 89
-218 58z"/>
<path d="M3536 9543 c-9 -55 -7 -70 7 -85 24 -25 47 -67 47 -87 0 -10 7 -22
15 -25 27 -10 29 23 5 67 -12 23 -24 64 -27 92 -6 78 -36 102 -47 38z"/>
<path d="M11644 12424 c-11 -36 -22 -69 -28 -86 -3 -10 -2 -18 2 -18 11 0 47
109 39 116 -4 4 -9 -2 -13 -12z"/>
<path d="M8643 12063 c-31 -12 -8 -33 65 -58 42 -15 109 -42 147 -61 68 -32
213 -84 234 -84 24 0 8 36 -34 77 -82 78 -225 134 -341 132 -33 0 -65 -3 -71
-6z"/>
<path d="M11437 11917 c-14 -19 -40 -60 -57 -93 -18 -32 -49 -79 -70 -104 -20
-25 -47 -65 -60 -90 -12 -25 -37 -59 -56 -77 -26 -24 -34 -40 -34 -67 0 -31 4
-36 36 -46 19 -7 46 -9 60 -6 25 7 25 8 19 69 -6 59 -5 65 27 112 18 28 42 70
52 95 11 25 30 63 42 85 27 47 75 155 70 155 -2 0 -15 -15 -29 -33z"/>
<path d="M10418 11738 c-7 -18 -27 -61 -45 -96 -30 -56 -32 -67 -24 -105 7
-29 19 -49 42 -67 18 -14 53 -44 77 -67 25 -24 48 -40 53 -37 5 3 9 29 9 57 0
29 6 75 14 104 14 51 13 52 -21 125 -35 72 -68 118 -85 118 -5 0 -14 -15 -20
-32z"/>
<path d="M9372 11722 c-45 -15 30 -131 175 -273 159 -156 216 -178 193 -74
-12 52 -64 137 -121 195 -19 19 -55 58 -81 87 -41 47 -52 53 -100 61 -30 5
-59 7 -66 4z"/>
<path d="M7950 11409 c0 -5 5 -7 10 -4 6 3 10 8 10 11 0 2 -4 4 -10 4 -5 0
-10 -5 -10 -11z"/>
<path d="M11593 11363 c-23 -3 -41 -15 -60 -40 -28 -36 -93 -84 -128 -93 -22
-6 -55 -60 -82 -130 -19 -53 -48 -79 -86 -80 -15 0 -30 -6 -32 -12 -7 -20 9
-81 22 -85 6 -2 29 11 50 30 38 35 106 61 144 55 20 -3 27 5 63 82 33 69 47
89 79 114 17 15 37 30 43 35 6 5 15 30 18 55 4 25 11 48 17 51 13 9 11 25 -3
23 -7 0 -28 -3 -45 -5z"/>
<path d="M7238 12993 c7 -3 16 -2 19 1 4 3 -2 6 -13 5 -11 0 -14 -3 -6 -6z"/>
<path d="M4437 21589 c8 -8 16 -8 30 0 16 9 14 10 -11 11 -22 0 -27 -3 -19
-11z"/>
<path d="M13540 9208 c0 -13 62 -78 74 -78 15 0 4 51 -16 70 -24 22 -58 27
-58 8z"/>
<path d="M1877 8909 c-22 -21 -46 -39 -54 -39 -20 0 -16 -20 5 -21 14 0 13 -2
-4 -9 -19 -8 -20 -12 -11 -74 10 -61 9 -70 -13 -109 -37 -65 -71 -107 -89
-107 -18 0 -80 -55 -82 -73 -1 -7 -3 -36 -4 -65 -1 -33 -8 -59 -18 -69 -14
-14 -14 -18 6 -44 11 -16 24 -29 28 -29 5 0 21 -12 36 -27 15 -14 22 -23 16
-19 -9 5 -13 -1 -13 -18 0 -14 -4 -26 -9 -26 -5 0 -13 -9 -16 -20 -7 -22 -43
-26 -107 -11 -42 10 -51 6 -38 -18 4 -9 14 -30 20 -47 10 -28 15 -31 52 -30
32 1 45 -5 64 -27 27 -32 25 -67 -7 -103 -11 -12 -19 -35 -19 -57 0 -32 3 -37
23 -37 12 -1 35 -7 52 -14 26 -11 34 -10 65 8 19 11 44 29 55 39 14 12 28 16
45 11 14 -3 40 -8 58 -9 18 -2 40 -9 48 -15 18 -16 91 -15 110 1 8 6 14 20 14
30 0 11 6 28 12 39 25 39 -41 64 -78 29 l-22 -21 -22 22 c-18 18 -21 29 -15
58 3 21 12 46 19 57 34 54 17 107 -52 165 -16 14 -27 31 -25 37 3 7 -1 15 -10
18 -14 6 -15 47 -2 109 4 21 1 34 -15 48 -22 21 -26 70 -9 115 10 26 55 72 72
73 4 0 17 9 29 20 12 11 30 20 40 20 10 0 18 6 18 14 0 9 8 12 25 8 34 -6 32
12 -5 55 -16 18 -30 39 -30 45 0 6 -14 42 -32 79 -40 85 -57 91 -111 38z"/>
<path d="M163 8664 c-18 -7 -48 -16 -67 -18 -48 -6 -56 -12 -56 -47 0 -17 -5
-39 -10 -49 -8 -16 -5 -26 17 -50 16 -17 33 -48 39 -68 8 -26 17 -37 30 -37
21 0 67 25 60 32 -2 3 2 12 10 21 9 10 27 35 41 57 33 51 34 130 2 158 -25 20
-24 20 -66 1z"/>
<path d="M2104 8560 c4 -23 2 -40 -3 -40 -5 0 -9 -9 -8 -20 1 -18 2 -18 19 -3
10 9 18 24 18 34 0 9 4 19 9 21 15 5 -7 48 -25 48 -14 0 -15 -7 -10 -40z"/>
<path d="M2737 8389 c-20 -23 -37 -46 -37 -50 0 -4 -8 -10 -17 -12 -17 -4 -17
-5 0 -6 21 -1 49 -26 40 -35 -6 -5 5 -8 23 -5 4 0 10 -5 15 -12 6 -10 9 -9 14
6 4 11 10 27 14 35 13 27 12 85 -1 103 -12 16 -16 14 -51 -24z"/>
<path d="M2529 8313 c-17 -38 -33 -85 -35 -106 -3 -34 -2 -37 15 -27 10 5 43
37 72 70 29 33 58 60 65 60 22 0 8 34 -22 51 -51 31 -62 25 -95 -48z"/>
<path d="M13660 7970 c-12 -7 -12 -12 -3 -21 10 -10 18 -10 38 -1 14 6 25 16
25 22 0 13 -40 13 -60 0z"/>
<path d="M13323 7943 c-7 -2 -13 -9 -13 -15 0 -12 41 -6 41 7 1 12 -11 15 -28
8z"/>
<path d="M1602 7465 l-22 -45 30 0 c37 0 73 16 88 40 10 16 9 18 -5 13 -10 -4
-14 -2 -9 5 7 12 1 17 -35 25 -22 6 -28 1 -47 -38z"/>
<path d="M13784 6549 c-3 -6 -1 -16 5 -22 8 -8 11 -5 11 11 0 24 -5 28 -16 11z"/>
<path d="M13750 6095 c-16 -29 -10 -39 18 -31 12 4 19 15 18 28 -1 31 -20 33
-36 3z"/>
<path d="M13781 5903 c-13 -27 -10 -71 5 -77 11 -4 14 6 14 44 0 53 -4 60 -19
33z"/>
<path d="M13575 5740 c4 -6 2 -17 -4 -24 -8 -9 -7 -18 4 -32 13 -17 15 -18 30
-3 13 13 14 20 4 42 -7 15 -19 27 -26 27 -8 0 -11 -5 -8 -10z"/>
<path d="M13774 5623 c-21 -41 -64 -90 -64 -73 0 19 -21 10 -55 -22 -27 -26
-33 -39 -28 -60 5 -29 30 -45 46 -29 5 5 21 6 36 2 14 -4 41 -4 59 1 l32 9 0
104 c0 58 -2 105 -3 105 -2 0 -12 -17 -23 -37z"/>
<path d="M2430 5081 c-71 -12 -128 -30 -145 -47 -28 -29 -47 -75 -40 -101 7
-28 -3 -28 155 2 68 12 150 46 186 76 54 44 -44 88 -156 70z"/>
<path d="M32 4748 c-29 -15 -36 -44 -27 -126 9 -89 15 -112 29 -112 14 0 56
53 56 70 0 6 7 13 15 16 9 4 15 19 15 35 0 16 4 29 8 29 5 0 1 22 -7 50 -14
42 -20 50 -41 49 -14 0 -35 -5 -48 -11z"/>
<path d="M942 4667 c-16 -19 15 -104 45 -125 14 -9 42 -33 64 -53 40 -36 40
-36 80 -22 60 20 93 39 129 72 l32 29 -110 -6 c-107 -5 -110 -4 -125 19 -9 13
-17 31 -19 39 -5 23 -47 60 -67 60 -10 0 -23 -6 -29 -13z"/>
<path d="M1970 4659 c-30 -11 -52 -42 -44 -63 6 -16 14 -14 83 22 27 15 40 27
34 33 -14 14 -45 17 -73 8z"/>
<path d="M13280 3663 c-36 -2 -69 -8 -74 -13 -4 -4 -14 -35 -21 -69 -12 -58
-11 -62 12 -96 18 -27 31 -35 53 -35 26 0 30 -4 36 -37 4 -22 2 -43 -5 -54
-29 -47 -7 -55 175 -69 205 -15 213 -17 224 -46 9 -21 15 -24 65 -24 l55 0 0
173 0 174 -25 11 c-35 16 -57 15 -105 -4 -29 -12 -42 -23 -46 -43 -6 -30 -16
-49 -66 -125 -31 -47 -43 -56 -67 -56 -38 0 -45 21 -26 76 14 42 14 47 -4 83
-11 21 -17 48 -14 60 4 16 -5 30 -38 61 -24 21 -48 38 -54 38 -5 -1 -39 -3
-75 -5z"/>
<path d="M12985 3360 c-3 -5 1 -10 9 -10 9 0 16 5 16 10 0 6 -4 10 -9 10 -6 0
-13 -4 -16 -10z"/>
<path d="M13485 3121 c-69 -25 -273 -130 -352 -181 -27 -18 -30 -58 -5 -67 9
-3 27 -15 39 -25 35 -32 58 -20 58 29 1 74 30 98 231 191 70 32 123 72 93 72
-8 -1 -36 -9 -64 -19z"/>
<path d="M13527 2922 c-21 -23 -21 -54 -1 -94 9 -17 13 -40 10 -54 -6 -21 -3
-24 21 -24 29 0 97 35 91 48 -21 48 -83 142 -92 142 -7 0 -20 -8 -29 -18z"/>
<path d="M13227 2643 c-20 -5 -19 -15 6 -73 14 -33 14 -37 -3 -60 -18 -23 -18
-23 -91 -10 -41 7 -76 11 -79 9 -7 -5 1 -140 9 -163 6 -16 9 -16 22 -5 25 24
42 23 29 -2 -21 -38 -5 -29 39 21 45 52 61 61 61 34 0 -11 6 -13 19 -9 11 3
22 1 26 -5 8 -13 -14 -110 -24 -110 -4 0 -13 -10 -18 -23 -6 -13 -17 -24 -25
-25 -7 -1 -25 -4 -40 -8 -33 -7 -35 3 -12 48 l16 30 -23 -16 c-31 -21 -39 -20
-39 7 -1 20 -1 21 -11 4 -6 -11 -17 -121 -24 -245 -29 -500 -31 -472 27 -409
37 38 52 72 68 150 10 48 16 60 37 68 31 12 63 -12 63 -47 0 -16 9 -25 30 -33
36 -12 36 -15 10 -81 -11 -28 -20 -60 -20 -70 0 -11 -4 -20 -9 -20 -5 0 -13
-12 -19 -27 -14 -42 -80 -125 -119 -153 -100 -71 -125 -110 -71 -110 12 0 36
-5 54 -12 28 -10 37 -8 77 15 92 54 219 230 237 330 6 26 22 67 38 90 16 23
37 65 47 92 10 28 24 59 31 70 7 11 20 58 28 104 9 45 25 103 35 127 28 63
102 172 150 222 l41 43 0 110 0 111 -52 -30 c-29 -16 -71 -35 -93 -42 -22 -7
-51 -19 -65 -28 -14 -9 -39 -24 -57 -33 l-31 -16 -64 53 c-35 29 -79 68 -98
88 -34 35 -76 50 -113 39z"/>
<path d="M12490 2510 c0 -5 5 -10 10 -10 6 0 10 5 10 10 0 6 -4 10 -10 10 -5
0 -10 -4 -10 -10z"/>
<path d="M13782 2088 c-7 -13 -16 -30 -22 -38 -12 -18 -73 -154 -88 -195 -11
-30 -24 -88 -27 -115 0 -9 -4 -21 -9 -28 -4 -6 -4 -16 -1 -22 3 -5 3 -15 -1
-22 -15 -24 -3 -191 17 -235 10 -23 19 -46 19 -51 0 -5 21 -38 48 -74 26 -35
55 -75 64 -89 16 -23 17 0 17 434 1 251 -1 457 -2 457 -2 0 -9 -10 -15 -22z"/>
</g>
</svg>
