<svg width="31" height="31" viewBox="0 0 31 31" fill="none" xmlns="http://www.w3.org/2000/svg">
<g clip-path="url(#clip0_73_134)">
<path d="M30.1241 16.716H15.5403L5.22781 27.0285C7.33297 28.8858 9.91709 30.115 12.6863 30.5764C15.4554 31.0377 18.2985 30.7127 20.8921 29.6383C23.4857 28.5639 25.7257 26.7832 27.3575 24.4988C28.9892 22.2144 29.9489 19.5179 30.1241 16.716ZM3.90218 25.701C2.04493 23.5959 0.815713 21.0117 0.354348 18.2426C-0.107017 15.4734 0.217983 12.6304 1.29238 10.0367C2.36679 7.44314 4.14746 5.20309 6.4319 3.57138C8.71633 1.93966 11.4128 0.981765 14.2147 0.806641V15.3904L3.90218 25.701ZM16.0897 0.806641V14.841H30.1241C29.8959 11.1936 28.3441 7.75494 25.7599 5.17078C23.1758 2.58663 19.7371 1.03477 16.0897 0.806641Z" fill="white"/>
</g>
<defs>
<clipPath id="clip0_73_134">
<rect width="30" height="30" fill="white" transform="translate(0.152344 0.77832)"/>
</clipPath>
</defs>
</svg>
